<svg xmlns="http://www.w3.org/2000/svg" version="1.1" xmlns:xlink="http://www.w3.org/1999/xlink" xmlns:svgjs="http://svgjs.dev/svgjs" width="500" height="500"><svg xmlns="http://www.w3.org/2000/svg" xmlns:xlink="http://www.w3.org/1999/xlink" width="500" zoomAndPan="magnify" viewBox="0 0 375 374.999991" height="500" preserveAspectRatio="xMidYMid meet" version="1.0"><defs><filter x="0%" y="0%" width="100%" height="100%" id="SvgjsFilter1152"><feColorMatrix values="0 0 0 0 1 0 0 0 0 1 0 0 0 0 1 0 0 0 1 0" color-interpolation-filters="sRGB"></feColorMatrix></filter><clipPath id="SvgjsClipPath1151"><path d="M 250 125 L 327 125 L 327 160 L 250 160 Z M 250 125 " clip-rule="nonzero"></path></clipPath><clipPath id="SvgjsClipPath1150"><path d="M 309.960938 -3.46875 L 380.285156 262.648438 L 64.863281 346 L -5.460938 79.886719 Z M 309.960938 -3.46875 " clip-rule="nonzero"></path></clipPath><clipPath id="SvgjsClipPath1149"><path d="M 309.960938 -3.46875 L 380.285156 262.648438 L 64.863281 346 L -5.460938 79.886719 Z M 309.960938 -3.46875 " clip-rule="nonzero"></path></clipPath><clipPath id="SvgjsClipPath1148"><path d="M 309.960938 -3.46875 L 380.285156 262.648438 L 64.863281 346 L -5.460938 79.886719 Z M 309.960938 -3.46875 " clip-rule="nonzero"></path></clipPath><clipPath id="SvgjsClipPath1147"><path d="M 115 198 L 197 198 L 197 233 L 115 233 Z M 115 198 " clip-rule="nonzero"></path></clipPath><clipPath id="SvgjsClipPath1146"><path d="M 309.960938 -3.46875 L 380.285156 262.648438 L 64.863281 346 L -5.460938 79.886719 Z M 309.960938 -3.46875 " clip-rule="nonzero"></path></clipPath><clipPath id="SvgjsClipPath1145"><path d="M 309.960938 -3.46875 L 380.285156 262.648438 L 64.863281 346 L -5.460938 79.886719 Z M 309.960938 -3.46875 " clip-rule="nonzero"></path></clipPath><clipPath id="SvgjsClipPath1144"><path d="M 309.960938 -3.46875 L 380.285156 262.648438 L 64.863281 346 L -5.460938 79.886719 Z M 309.960938 -3.46875 " clip-rule="nonzero"></path></clipPath><clipPath id="SvgjsClipPath1143"><path d="M 180 130 L 251 130 L 251 164 L 180 164 Z M 180 130 " clip-rule="nonzero"></path></clipPath><clipPath id="SvgjsClipPath1142"><path d="M 309.960938 -3.46875 L 380.285156 262.648438 L 64.863281 346 L -5.460938 79.886719 Z M 309.960938 -3.46875 " clip-rule="nonzero"></path></clipPath><clipPath id="SvgjsClipPath1141"><path d="M 309.960938 -3.46875 L 380.285156 262.648438 L 64.863281 346 L -5.460938 79.886719 Z M 309.960938 -3.46875 " clip-rule="nonzero"></path></clipPath><clipPath id="SvgjsClipPath1140"><path d="M 309.960938 -3.46875 L 380.285156 262.648438 L 64.863281 346 L -5.460938 79.886719 Z M 309.960938 -3.46875 " clip-rule="nonzero"></path></clipPath><clipPath id="SvgjsClipPath1139"><path d="M 185 99 L 259 99 L 259 129 L 185 129 Z M 185 99 " clip-rule="nonzero"></path></clipPath><clipPath id="SvgjsClipPath1138"><path d="M 309.960938 -3.46875 L 380.285156 262.648438 L 64.863281 346 L -5.460938 79.886719 Z M 309.960938 -3.46875 " clip-rule="nonzero"></path></clipPath><clipPath id="SvgjsClipPath1137"><path d="M 309.960938 -3.46875 L 380.285156 262.648438 L 64.863281 346 L -5.460938 79.886719 Z M 309.960938 -3.46875 " clip-rule="nonzero"></path></clipPath><clipPath id="SvgjsClipPath1136"><path d="M 309.960938 -3.46875 L 380.285156 262.648438 L 64.863281 346 L -5.460938 79.886719 Z M 309.960938 -3.46875 " clip-rule="nonzero"></path></clipPath><clipPath id="SvgjsClipPath1135"><path d="M 258 82 L 327 82 L 327 112 L 258 112 Z M 258 82 " clip-rule="nonzero"></path></clipPath><clipPath id="SvgjsClipPath1134"><path d="M 309.960938 -3.46875 L 380.285156 262.648438 L 64.863281 346 L -5.460938 79.886719 Z M 309.960938 -3.46875 " clip-rule="nonzero"></path></clipPath><clipPath id="SvgjsClipPath1133"><path d="M 309.960938 -3.46875 L 380.285156 262.648438 L 64.863281 346 L -5.460938 79.886719 Z M 309.960938 -3.46875 " clip-rule="nonzero"></path></clipPath><clipPath id="SvgjsClipPath1132"><path d="M 309.960938 -3.46875 L 380.285156 262.648438 L 64.863281 346 L -5.460938 79.886719 Z M 309.960938 -3.46875 " clip-rule="nonzero"></path></clipPath><clipPath id="SvgjsClipPath1131"><path d="M 203 29 L 253 29 L 253 89 L 203 89 Z M 203 29 " clip-rule="nonzero"></path></clipPath><clipPath id="SvgjsClipPath1130"><path d="M 309.960938 -3.46875 L 380.285156 262.648438 L 64.863281 346 L -5.460938 79.886719 Z M 309.960938 -3.46875 " clip-rule="nonzero"></path></clipPath><clipPath id="SvgjsClipPath1129"><path d="M 309.960938 -3.46875 L 380.285156 262.648438 L 64.863281 346 L -5.460938 79.886719 Z M 309.960938 -3.46875 " clip-rule="nonzero"></path></clipPath><clipPath id="SvgjsClipPath1128"><path d="M 309.960938 -3.46875 L 380.285156 262.648438 L 64.863281 346 L -5.460938 79.886719 Z M 309.960938 -3.46875 " clip-rule="nonzero"></path></clipPath><clipPath id="SvgjsClipPath1127"><path d="M 226 174 L 304 174 L 304 209 L 226 209 Z M 226 174 " clip-rule="nonzero"></path></clipPath><clipPath id="SvgjsClipPath1126"><path d="M 309.960938 -3.46875 L 380.285156 262.648438 L 64.863281 346 L -5.460938 79.886719 Z M 309.960938 -3.46875 " clip-rule="nonzero"></path></clipPath><clipPath id="SvgjsClipPath1125"><path d="M 309.960938 -3.46875 L 380.285156 262.648438 L 64.863281 346 L -5.460938 79.886719 Z M 309.960938 -3.46875 " clip-rule="nonzero"></path></clipPath><clipPath id="SvgjsClipPath1124"><path d="M 309.960938 -3.46875 L 380.285156 262.648438 L 64.863281 346 L -5.460938 79.886719 Z M 309.960938 -3.46875 " clip-rule="nonzero"></path></clipPath><clipPath id="SvgjsClipPath1123"><path d="M 145 166 L 230 166 L 230 197 L 145 197 Z M 145 166 " clip-rule="nonzero"></path></clipPath><clipPath id="SvgjsClipPath1122"><path d="M 309.960938 -3.46875 L 380.285156 262.648438 L 64.863281 346 L -5.460938 79.886719 Z M 309.960938 -3.46875 " clip-rule="nonzero"></path></clipPath><clipPath id="SvgjsClipPath1121"><path d="M 309.960938 -3.46875 L 380.285156 262.648438 L 64.863281 346 L -5.460938 79.886719 Z M 309.960938 -3.46875 " clip-rule="nonzero"></path></clipPath><clipPath id="SvgjsClipPath1120"><path d="M 309.960938 -3.46875 L 380.285156 262.648438 L 64.863281 346 L -5.460938 79.886719 Z M 309.960938 -3.46875 " clip-rule="nonzero"></path></clipPath><clipPath id="SvgjsClipPath1119"><path d="M 195 215 L 272 215 L 272 247 L 195 247 Z M 195 215 " clip-rule="nonzero"></path></clipPath><clipPath id="SvgjsClipPath1118"><path d="M 309.960938 -3.46875 L 380.285156 262.648438 L 64.863281 346 L -5.460938 79.886719 Z M 309.960938 -3.46875 " clip-rule="nonzero"></path></clipPath><clipPath id="SvgjsClipPath1117"><path d="M 309.960938 -3.46875 L 380.285156 262.648438 L 64.863281 346 L -5.460938 79.886719 Z M 309.960938 -3.46875 " clip-rule="nonzero"></path></clipPath><clipPath id="SvgjsClipPath1116"><path d="M 309.960938 -3.46875 L 380.285156 262.648438 L 64.863281 346 L -5.460938 79.886719 Z M 309.960938 -3.46875 " clip-rule="nonzero"></path></clipPath><clipPath id="SvgjsClipPath1115"><path d="M 156 247 L 238 247 L 238 288 L 156 288 Z M 156 247 " clip-rule="nonzero"></path></clipPath><clipPath id="SvgjsClipPath1114"><path d="M 309.960938 -3.46875 L 380.285156 262.648438 L 64.863281 346 L -5.460938 79.886719 Z M 309.960938 -3.46875 " clip-rule="nonzero"></path></clipPath><clipPath id="SvgjsClipPath1113"><path d="M 309.960938 -3.46875 L 380.285156 262.648438 L 64.863281 346 L -5.460938 79.886719 Z M 309.960938 -3.46875 " clip-rule="nonzero"></path></clipPath><clipPath id="SvgjsClipPath1112"><path d="M 309.960938 -3.46875 L 380.285156 262.648438 L 64.863281 346 L -5.460938 79.886719 Z M 309.960938 -3.46875 " clip-rule="nonzero"></path></clipPath><clipPath id="SvgjsClipPath1111"><path d="M 87 219 L 156 219 L 156 260 L 87 260 Z M 87 219 " clip-rule="nonzero"></path></clipPath><clipPath id="SvgjsClipPath1110"><path d="M 309.960938 -3.46875 L 380.285156 262.648438 L 64.863281 346 L -5.460938 79.886719 Z M 309.960938 -3.46875 " clip-rule="nonzero"></path></clipPath><clipPath id="SvgjsClipPath1109"><path d="M 309.960938 -3.46875 L 380.285156 262.648438 L 64.863281 346 L -5.460938 79.886719 Z M 309.960938 -3.46875 " clip-rule="nonzero"></path></clipPath><clipPath id="SvgjsClipPath1108"><path d="M 309.960938 -3.46875 L 380.285156 262.648438 L 64.863281 346 L -5.460938 79.886719 Z M 309.960938 -3.46875 " clip-rule="nonzero"></path></clipPath><clipPath id="SvgjsClipPath1107"><path d="M 115 272 L 187 272 L 187 313 L 115 313 Z M 115 272 " clip-rule="nonzero"></path></clipPath><clipPath id="SvgjsClipPath1106"><path d="M 309.960938 -3.46875 L 380.285156 262.648438 L 64.863281 346 L -5.460938 79.886719 Z M 309.960938 -3.46875 " clip-rule="nonzero"></path></clipPath><clipPath id="SvgjsClipPath1105"><path d="M 309.960938 -3.46875 L 380.285156 262.648438 L 64.863281 346 L -5.460938 79.886719 Z M 309.960938 -3.46875 " clip-rule="nonzero"></path></clipPath><clipPath id="SvgjsClipPath1104"><path d="M 309.960938 -3.46875 L 380.285156 262.648438 L 64.863281 346 L -5.460938 79.886719 Z M 309.960938 -3.46875 " clip-rule="nonzero"></path></clipPath><clipPath id="SvgjsClipPath1103"><path d="M 107 116 L 342 116 L 342 246 L 107 246 Z M 107 116 " clip-rule="nonzero"></path></clipPath><clipPath id="SvgjsClipPath1102"><path d="M 309.960938 -3.46875 L 380.285156 262.648438 L 64.863281 346 L -5.460938 79.886719 Z M 309.960938 -3.46875 " clip-rule="nonzero"></path></clipPath><clipPath id="SvgjsClipPath1101"><path d="M 309.960938 -3.46875 L 380.285156 262.648438 L 64.863281 346 L -5.460938 79.886719 Z M 309.960938 -3.46875 " clip-rule="nonzero"></path></clipPath><clipPath id="SvgjsClipPath1100"><path d="M 309.960938 -3.46875 L 380.285156 262.648438 L 64.863281 346 L -5.460938 79.886719 Z M 309.960938 -3.46875 " clip-rule="nonzero"></path></clipPath><mask id="SvgjsMask1099"><g filter="url(#1a14a254c3)"><rect x="-37.5" width="450" fill="#000000" y="-37.499999" height="449.999989" fill-opacity="0.8"></rect></g></mask><clipPath id="SvgjsClipPath1098"><path d="M 143 9 L 220 9 L 220 44 L 143 44 Z M 143 9 " clip-rule="nonzero"></path></clipPath><clipPath id="SvgjsClipPath1097"><path d="M 202.960938 -119.46875 L 273.285156 146.648438 L -42.136719 230 L -112.460938 -36.113281 Z M 202.960938 -119.46875 " clip-rule="nonzero"></path></clipPath><clipPath id="SvgjsClipPath1096"><path d="M 202.960938 -119.46875 L 273.285156 146.648438 L -42.136719 230 L -112.460938 -36.113281 Z M 202.960938 -119.46875 " clip-rule="nonzero"></path></clipPath><clipPath id="SvgjsClipPath1095"><path d="M 202.960938 -119.46875 L 273.285156 146.648438 L -42.136719 230 L -112.460938 -36.113281 Z M 202.960938 -119.46875 " clip-rule="nonzero"></path></clipPath><clipPath id="SvgjsClipPath1094"><path d="M 8 82 L 90 82 L 90 117 L 8 117 Z M 8 82 " clip-rule="nonzero"></path></clipPath><clipPath id="SvgjsClipPath1093"><path d="M 202.960938 -119.46875 L 273.285156 146.648438 L -42.136719 230 L -112.460938 -36.113281 Z M 202.960938 -119.46875 " clip-rule="nonzero"></path></clipPath><clipPath id="SvgjsClipPath1092"><path d="M 202.960938 -119.46875 L 273.285156 146.648438 L -42.136719 230 L -112.460938 -36.113281 Z M 202.960938 -119.46875 " clip-rule="nonzero"></path></clipPath><clipPath id="SvgjsClipPath1091"><path d="M 202.960938 -119.46875 L 273.285156 146.648438 L -42.136719 230 L -112.460938 -36.113281 Z M 202.960938 -119.46875 " clip-rule="nonzero"></path></clipPath><clipPath id="SvgjsClipPath1090"><rect x="0" width="235" y="0" height="130"></rect></clipPath><clipPath id="SvgjsClipPath1089"><path d="M 57 80 L 260 80 L 260 295 L 57 295 Z M 57 80 " clip-rule="nonzero"></path></clipPath><clipPath id="SvgjsClipPath1088"><path d="M 309.960938 -3.46875 L 380.285156 262.648438 L 64.863281 346 L -5.460938 79.886719 Z M 309.960938 -3.46875 " clip-rule="nonzero"></path></clipPath><clipPath id="SvgjsClipPath1087"><path d="M 309.960938 -3.46875 L 380.285156 262.648438 L 64.863281 346 L -5.460938 79.886719 Z M 309.960938 -3.46875 " clip-rule="nonzero"></path></clipPath><clipPath id="SvgjsClipPath1086"><path d="M 309.960938 -3.46875 L 380.285156 262.648438 L 64.863281 346 L -5.460938 79.886719 Z M 309.960938 -3.46875 " clip-rule="nonzero"></path></clipPath></defs><g clip-path="url(#36e0e6a9d4)"><g clip-path="url(#906860bd50)"><g clip-path="url(#55fd41a1c1)"><g clip-path="url(#cc1caf176e)"><path fill="#8cc63f" d="M 250.3125 146.503906 C 250.3125 146.503906 271.441406 162.261719 290.21875 158.417969 C 308.933594 154.589844 326.261719 133.066406 326.261719 133.066406 C 326.261719 133.066406 300.089844 123.367188 285.871094 126.535156 C 271.632812 129.640625 250.3125 146.503906 250.3125 146.503906 Z M 250.3125 146.503906 " fill-opacity="1" fill-rule="nonzero"></path></g></g></g></g><g clip-path="url(#6eed941cf4)"><g clip-path="url(#61f4d71155)"><g clip-path="url(#33265c23b2)"><g clip-path="url(#6388cf47f0)"><path fill="#8cc63f" d="M 196.199219 220.433594 C 196.199219 220.433594 187.648438 207.980469 162.554688 200.625 C 137.464844 193.265625 115.949219 204.667969 115.949219 204.667969 C 115.949219 204.667969 123.640625 219.839844 153.949219 229.757812 C 184.253906 239.679688 196.199219 220.433594 196.199219 220.433594 Z M 196.199219 220.433594 " fill-opacity="1" fill-rule="nonzero"></path></g></g></g></g><g clip-path="url(#0908a70651)"><g clip-path="url(#1ec7d96d81)"><g clip-path="url(#398bded3d3)"><g clip-path="url(#a276567cf9)"><path fill="#8cc63f" d="M 250.390625 149.042969 C 250.390625 149.042969 229.875 129.640625 212.753906 130.292969 C 195.632812 130.941406 180.824219 149.566406 180.824219 149.566406 C 180.824219 149.566406 205.636719 163.828125 218.59375 163.09375 C 231.550781 162.363281 250.390625 149.042969 250.390625 149.042969 Z M 250.390625 149.042969 " fill-opacity="1" fill-rule="nonzero"></path></g></g></g></g><g clip-path="url(#02e8bab06c)"><g clip-path="url(#076efc38da)"><g clip-path="url(#c3beda4001)"><g clip-path="url(#adbdffc5bd)"><path fill="#8cc63f" d="M 258.171875 109.554688 C 258.171875 109.554688 233.976562 95.394531 215.894531 100.371094 C 197.808594 105.347656 185.460938 111.367188 185.460938 111.367188 C 185.460938 111.367188 199.878906 113.664062 223.667969 125.308594 C 247.457031 136.949219 258.171875 109.554688 258.171875 109.554688 Z M 258.171875 109.554688 " fill-opacity="1" fill-rule="nonzero"></path></g></g></g></g><g clip-path="url(#9a420cea94)"><g clip-path="url(#e8ed410381)"><g clip-path="url(#b905e976d2)"><g clip-path="url(#f650be4ddb)"><path fill="#8cc63f" d="M 258.648438 109.628906 C 258.648438 109.628906 286.710938 115.28125 303.054688 108.203125 C 319.398438 101.125 326.023438 82.890625 326.023438 82.890625 C 326.023438 82.890625 298.429688 82.238281 286.183594 87.902344 C 273.921875 93.507812 258.648438 109.628906 258.648438 109.628906 Z M 258.648438 109.628906 " fill-opacity="1" fill-rule="nonzero"></path></g></g></g></g><g clip-path="url(#24f8544a9d)"><g clip-path="url(#f2abd850dc)"><g clip-path="url(#c8ab9934f7)"><g clip-path="url(#2476d6e8d2)"><path fill="#8cc63f" d="M 251.671875 88.945312 C 251.671875 88.945312 255.1875 66.410156 242.96875 52.039062 C 230.753906 37.667969 203.980469 29.90625 203.980469 29.90625 C 203.980469 29.90625 207.972656 54.722656 217.472656 65.542969 C 226.929688 76.441406 251.671875 88.945312 251.671875 88.945312 Z M 251.671875 88.945312 " fill-opacity="1" fill-rule="nonzero"></path></g></g></g></g><g clip-path="url(#1cf209d259)"><g clip-path="url(#a05c7f35a0)"><g clip-path="url(#a8e92e0d4a)"><g clip-path="url(#5692d532b4)"><path fill="#8cc63f" d="M 226.078125 188.171875 C 226.078125 188.171875 235.707031 168.882812 261.777344 176.703125 C 287.84375 184.523438 303.496094 174.082031 303.496094 174.082031 C 303.496094 174.082031 298.867188 205.582031 276.53125 208.398438 C 254.195312 211.210938 237.074219 195.445312 226.078125 188.171875 Z M 226.078125 188.171875 " fill-opacity="1" fill-rule="nonzero"></path></g></g></g></g><g clip-path="url(#0dd6e868e5)"><g clip-path="url(#5ef57259a7)"><g clip-path="url(#1ef26af3c8)"><g clip-path="url(#9f345981ef)"><path fill="#8cc63f" d="M 229.175781 184.726562 C 229.175781 184.726562 213.359375 162.441406 187.375 167.140625 C 163.578125 171.394531 145.453125 173.230469 145.453125 173.230469 C 145.453125 173.230469 175.945312 190.585938 192.207031 195.875 C 208.46875 201.167969 229.175781 184.726562 229.175781 184.726562 Z M 229.175781 184.726562 " fill-opacity="1" fill-rule="nonzero"></path></g></g></g></g><g clip-path="url(#4e1ca8db56)"><g clip-path="url(#66ba13b8a9)"><g clip-path="url(#eca19e0d0d)"><g clip-path="url(#e15b8616f0)"><path fill="#8cc63f" d="M 195.261719 219.367188 C 195.261719 219.367188 207.621094 241.511719 226.5625 245.503906 C 245.503906 249.496094 271.066406 237.488281 271.066406 237.488281 C 271.066406 237.488281 251.421875 218.644531 236.921875 215.777344 C 222.5 212.957031 195.261719 219.367188 195.261719 219.367188 Z M 195.261719 219.367188 " fill-opacity="1" fill-rule="nonzero"></path></g></g></g></g><g clip-path="url(#078e2cc1f6)"><g clip-path="url(#2ed049e39d)"><g clip-path="url(#e49e5cce57)"><g clip-path="url(#7e9faf648c)"><path fill="#8cc63f" d="M 156.964844 253.125 C 156.964844 253.125 183.9375 240.484375 206.484375 254.882812 C 229.015625 269.222656 237.953125 267.449219 237.953125 267.449219 C 237.953125 267.449219 224.882812 294.152344 197.449219 285.378906 C 169.949219 276.621094 156.964844 253.125 156.964844 253.125 Z M 156.964844 253.125 " fill-opacity="1" fill-rule="nonzero"></path></g></g></g></g><g clip-path="url(#068614abbc)"><g clip-path="url(#b1602fe760)"><g clip-path="url(#f8756ebf36)"><g clip-path="url(#da90415720)"><path fill="#8cc63f" d="M 155.671875 255.699219 C 155.671875 255.699219 157.671875 239.871094 133.355469 231.457031 C 108.988281 223.121094 87.355469 219.644531 87.355469 219.644531 C 87.355469 219.644531 89.363281 237.433594 112.792969 252.191406 C 136.300781 266.992188 155.671875 255.699219 155.671875 255.699219 Z M 155.671875 255.699219 " fill-opacity="1" fill-rule="nonzero"></path></g></g></g></g><g clip-path="url(#c825dba9d2)"><g clip-path="url(#b590f12ba9)"><g clip-path="url(#a09a31c563)"><g clip-path="url(#6ca0edf1c3)"><path fill="#8cc63f" d="M 115.746094 275.3125 C 115.746094 275.3125 137.300781 268.042969 160.835938 278.960938 C 184.367188 289.882812 186.65625 307.996094 186.65625 307.996094 C 186.65625 307.996094 162.375 318.878906 139.492188 305.945312 C 116.53125 292.96875 115.746094 275.3125 115.746094 275.3125 Z M 115.746094 275.3125 " fill-opacity="1" fill-rule="nonzero"></path></g></g></g></g><g clip-path="url(#03c7661000)"><g clip-path="url(#f27543ad8c)"><g clip-path="url(#aaf9c31740)"><g clip-path="url(#f290fd03fe)"><g mask="url(#c05312d07f)"><g transform="matrix(1, 0, 0, 1, 107, 116)"><g clip-path="url(#aede4eb9fb)"><g clip-path="url(#12ca187517)"><g clip-path="url(#b6abbbccee)"><g clip-path="url(#55e3f9b3f3)"><g clip-path="url(#1e34773064)"><path fill="#ffffff" d="M 143.3125 30.503906 C 143.3125 30.503906 164.441406 46.261719 183.21875 42.417969 C 201.933594 38.589844 219.261719 17.066406 219.261719 17.066406 C 219.261719 17.066406 193.089844 7.367188 178.871094 10.535156 C 164.632812 13.640625 143.3125 30.503906 143.3125 30.503906 Z M 143.3125 30.503906 " fill-opacity="0.5" fill-rule="nonzero"></path></g></g></g></g><g clip-path="url(#5c3a407e2f)"><g clip-path="url(#c1c3509f01)"><g clip-path="url(#1112735cbf)"><g clip-path="url(#4c7afb73dd)"><path fill="#ffffff" d="M 89.199219 104.433594 C 89.199219 104.433594 80.648438 91.980469 55.554688 84.625 C 30.464844 77.265625 8.949219 88.667969 8.949219 88.667969 C 8.949219 88.667969 16.640625 103.839844 46.949219 113.757812 C 77.253906 123.679688 89.199219 104.433594 89.199219 104.433594 Z M 89.199219 104.433594 " fill-opacity="0.5" fill-rule="nonzero"></path></g></g></g></g></g></g></g></g></g></g></g><g clip-path="url(#ff8421be0b)"><g clip-path="url(#4136f27407)"><g clip-path="url(#192cd53c7c)"><g clip-path="url(#761ba9fd58)"><path fill="#8cc63f" d="M 251.171875 87.304688 C 251.171875 87.304688 286.253906 124.003906 212.238281 206.472656 C 138.222656 288.945312 60.316406 294.230469 60.316406 294.230469 C 60.316406 294.230469 55.671875 294.078125 58.046875 289.382812 C 60.675781 284.15625 71.476562 285.964844 79.484375 284.898438 C 87.472656 283.773438 142.527344 279.863281 212.363281 201.976562 C 282.199219 124.089844 250.773438 87.542969 246.085938 85.234375 C 241.402344 82.925781 240.179688 82.789062 243.101562 80.902344 C 246.066406 78.933594 251.171875 87.304688 251.171875 87.304688 Z M 251.171875 87.304688 " fill-opacity="1" fill-rule="nonzero"></path></g></g></g></g></svg><style>@media (prefers-color-scheme: light) { :root { filter: none; } }
@media (prefers-color-scheme: dark) { :root { filter: none; } }
</style></svg>