<svg width="652" height="420" viewBox="0 0 652 420" fill="none" xmlns="http://www.w3.org/2000/svg">
<path d="M-1.68754e-05 324.118L32.4346 305.403L0.864445 287.183L0.576291 287.022V249.568L-1.68754e-05 249.234L0.576291 248.899V211.457L32.4115 193.076L0.829903 174.844L0.541749 174.683V135.915L33.8408 155.138L34.1289 155.299V192.085L34.152 192.073V230.184L64.3966 247.643C64.6732 247.367 65.0306 247.159 65.4225 247.055V174.026L97.8571 155.311V117.868L128.69 100.075C128.632 99.8791 128.597 99.6832 128.597 99.4758C128.597 99.2683 128.632 99.0724 128.69 98.888L98.1452 81.2559L97.8571 81.0946V44.3322L66.6096 62.3677V137.909L35.2124 119.782C34.7974 120.196 34.2326 120.45 33.6102 120.45C32.3654 120.45 31.3511 119.436 31.3511 118.191C31.3511 117.142 32.0657 116.267 33.0339 116.013V43.6868L0.84137 25.0982L0.553216 24.9369V-13.8308L33.0339 4.91922V4.88465L66.0333 23.9342L99.0442 4.88465V43.0069L131.156 61.5494L131.444 61.7108V97.3092C132.412 97.5627 133.127 98.4386 133.127 99.4873C133.127 100.536 132.412 101.412 131.444 101.665V137.264L99.0097 155.979V192.753L130.292 210.812V174.038L162.726 155.322V154.654L163.303 154.988L163.879 154.654V155.322L196.025 173.876L196.313 174.038V212.805L164.916 194.678C164.501 195.093 163.936 195.346 163.314 195.346C162.692 195.346 162.115 195.093 161.712 194.678L131.467 212.137V287.69L98.4564 268.64L66.5981 287.022L34.7398 305.414L66.0218 323.473L66.5981 323.139V323.807L67.1745 324.141L66.5981 324.475V361.918L34.1635 380.633V415.563C35.1317 415.817 35.8463 416.693 35.8463 417.741C35.8463 418.986 34.832 420 33.5872 420C32.3424 420 31.3281 418.986 31.3281 417.741C31.3281 417.534 31.3627 417.338 31.4203 417.154L0.875982 399.521L0.587828 399.36V360.592L33.0224 379.308V343.202L-1.68754e-05 324.118ZM32.9763 155.968L1.69436 137.909V174.015L32.9763 192.073V155.968ZM1.72891 286.342L33.0109 304.4V268.295L1.72891 250.236V286.342ZM1.72891 248.231L33.0109 230.172V194.067L1.72891 212.125V248.231ZM33.5757 231.175L2.29368 249.234L16.5054 257.439L33.5757 267.292L63.8318 249.833C63.7857 249.648 63.7396 249.452 63.7396 249.245C63.7396 249.038 63.7742 248.842 63.8318 248.657L33.5757 231.175ZM66.5866 212.137V247.055C66.9785 247.159 67.3358 247.367 67.6124 247.643L82.2161 239.207L97.8571 230.184V194.078L82.2161 203.102L66.5866 212.137ZM65.457 62.3677L34.1751 44.3091V80.4146L65.457 98.4847V62.3677ZM65.457 135.915V99.81L34.1751 81.7514V116.013C35.1433 116.267 35.8578 117.142 35.8578 118.191C35.8578 118.399 35.8233 118.595 35.7657 118.779L65.457 135.915ZM32.9763 6.22146L1.69436 -11.8371V24.2685L32.9763 42.327V6.22146ZM34.1751 42.9838L65.457 61.0424V24.9369L34.1751 6.87834V42.9838ZM97.8916 6.87834L66.6096 24.9369V61.0424L97.8571 43.0069V42.327L97.8801 42.3385V6.87834H97.8916ZM99.0097 44.3207V80.4262L129.254 97.8854C129.531 97.6088 129.888 97.4014 130.28 97.2977V62.3677L99.0097 44.3207ZM130.292 136.584V101.654C129.9 101.55 129.542 101.354 129.266 101.066L99.0097 118.525V154.631L130.292 136.584ZM66.5866 174.695V210.8L82.2276 201.777L97.8685 192.753V156.648L66.5866 174.695ZM195.149 210.8V174.695L163.867 156.636V190.898C164.836 191.151 165.55 192.027 165.55 193.076C165.55 193.283 165.516 193.479 165.458 193.664L195.149 210.8ZM162.726 190.898V156.636L131.444 174.695V210.8L161.124 193.675C161.078 193.491 161.032 193.295 161.032 193.087C161.032 192.027 161.758 191.151 162.726 190.898ZM130.292 212.137L99.0097 194.078V230.184L130.292 248.242V212.137ZM130.292 249.568L99.0097 231.509V267.615L130.292 285.673V249.568ZM97.8571 267.626V231.521L82.2161 240.544L68.1772 248.646C68.2233 248.83 68.2694 249.026 68.2694 249.234C68.2694 250.282 67.5548 251.158 66.5866 251.412V285.673L97.8571 267.626ZM65.434 251.412C65.0421 251.308 64.6848 251.112 64.4081 250.824L34.1635 268.283V304.389L65.4455 286.33V251.412H65.434ZM34.152 306.394L33.5757 306.06L32.9994 306.394L2.29368 324.118L33.5757 342.177L64.8577 324.118L34.152 306.394ZM65.434 325.109L34.152 343.168V379.273L65.434 361.215V325.109ZM1.72891 362.552V398.657L31.9735 416.116C32.2502 415.84 32.6075 415.632 32.9994 415.529V380.599L1.72891 362.552ZM193.466 136.918C193.466 136.711 193.501 136.515 193.559 136.33L163.014 118.698L162.726 118.537V43.6868L132.655 26.3313C132.24 26.9075 131.571 27.2878 130.81 27.2878C129.565 27.2878 128.551 26.2737 128.551 25.029C128.551 23.9803 129.266 23.1045 130.234 22.851V-13.8308L162.669 4.88465V-31.8893L196.256 -51.2731V-12.4939L164.432 5.87572L195.726 23.9458L225.982 6.48652C225.936 6.30213 225.89 6.10621 225.89 5.89878C225.89 4.65416 226.904 3.64002 228.149 3.64002C229.394 3.64002 230.408 4.65416 230.408 5.89878C230.408 6.94749 229.693 7.82333 228.725 8.07686V42.3385V80.4492L260.583 98.8419L291.865 80.7834L260.295 62.5636L260.007 62.4022V24.9253L259.431 24.5911L260.007 24.2569V-12.5055L227.861 -31.0595L227.572 -31.2209V-70L260.871 -50.7775L261.16 -50.6162V-13.8423L292.442 -31.9008V-32.5692L293.018 -32.235L326.029 -51.2846V-15.0293C326.421 -14.9256 326.778 -14.7181 327.055 -14.4415L357.299 -31.8893V-69.9885L389.734 -51.2731V-51.2846L423.033 -32.0621L423.321 -31.9008V4.87312L454.603 -13.1854V-13.8538L455.179 -13.5196L455.756 -13.8538V-13.1854L487.614 5.1958L520.625 -13.8538V24.2685L551.907 42.327V5.54153L585.494 -13.8423L617.929 -32.5577V5.55305L648.139 23.0008C648.554 22.5859 649.118 22.3324 649.741 22.3324C650.986 22.3324 652 23.3465 652 24.5911C652 25.8357 650.986 26.8499 649.741 26.8499C649.107 26.8499 648.542 26.5963 648.139 26.1815L617.894 43.6407V81.7514L584.595 62.529L584.307 62.3677V25.5937L553.025 43.6523V81.7514L521.628 63.6238C521.351 63.9004 520.994 64.1078 520.602 64.2115V99.81L487.015 119.194V81.7514L454.58 100.467V61.6992L486.438 43.3181L455.168 25.2711L422.157 44.3207V6.20993L390.875 -11.8486V61.6992L423.021 80.2533L423.31 80.4146V119.182L391.912 101.055C391.497 101.469 390.933 101.723 390.31 101.723C389.065 101.723 388.051 100.709 388.051 99.4642C388.051 98.4155 388.766 97.5397 389.734 97.2862V62.3561L357.587 43.8021L357.299 43.6407V6.87834L326.017 24.9369V59.8669C326.985 60.1204 327.7 60.9963 327.7 62.045C327.7 62.2524 327.666 62.4483 327.608 62.6327L358.152 80.2648L358.44 80.4262V119.194L325.429 100.144L292.995 118.86L260.56 100.144L228.126 118.86L196.267 100.467V134.728C197.236 134.982 197.95 135.858 197.95 136.907C197.95 138.151 196.936 139.165 195.691 139.165C194.481 139.177 193.466 138.163 193.466 136.918ZM163.879 117.868L194.123 135.328C194.4 135.051 194.757 134.844 195.149 134.74V99.81L194.573 99.4758L163.867 81.7514V117.868H163.879ZM227.584 44.3207L196.302 62.3792V98.4847L227.584 80.4262V44.3207ZM195.149 62.3677L163.867 44.3091V80.4146L195.149 98.4732V62.3677ZM163.879 42.9838L195.161 61.0424V24.9369L163.879 6.87834V42.9838ZM131.398 -11.8371V22.8394C132.366 23.093 133.081 23.9688 133.081 25.0175C133.081 25.0867 133.069 25.1558 133.058 25.225L162.669 42.3154V6.22146L131.398 -11.8371ZM195.103 -49.2794L163.821 -31.2209V4.88465L195.103 -13.1739V-49.2794ZM227.584 8.06534C227.192 7.96162 226.835 7.76571 226.558 7.4776L196.313 24.9369V61.0424L227.595 42.9838V8.06534H227.584ZM293.018 42.6496L324.3 24.5911L310.088 16.3859L293.018 6.53262L261.736 24.5911L275.948 32.7964L293.018 42.6496ZM324.876 -10.6616C324.484 -10.7653 324.127 -10.9612 323.85 -11.2493L294.182 5.87572L324.888 23.6V-10.6616H324.876ZM293.594 4.87312L323.274 -12.2635C323.228 -12.4478 323.182 -12.6438 323.182 -12.8512C323.182 -13.0586 323.216 -13.2545 323.274 -13.4389L293.594 -30.5755V4.87312ZM293.594 43.6523V79.7578L323.274 62.6212C323.228 62.4368 323.182 62.2409 323.182 62.0334C323.182 60.9847 323.896 60.1089 324.865 59.8554V25.5937L293.594 43.6523ZM324.876 64.2231C324.484 64.1193 324.127 63.9119 323.85 63.6353L294.182 80.7604L324.888 98.4847V64.2231H324.876ZM261.16 61.6992L292.442 79.7578V43.6523L261.16 25.5937V61.6992ZM260.007 -49.9478L228.725 -68.0063V-31.9008L260.007 -13.8423V-49.9478ZM261.16 -12.5055V23.6L292.442 5.54153V-30.564L261.16 -12.5055ZM294.17 -31.5666L323.839 -14.4415C324.115 -14.7181 324.473 -14.9256 324.865 -15.0293V-49.2909L294.17 -31.5666ZM358.452 -67.9948V-31.8893L389.734 -13.8308V-49.9363L358.452 -67.9948ZM455.744 -11.8486V24.2569L487.026 42.3154V6.20993L455.744 -11.8486ZM519.449 -11.8486L488.167 6.20993V42.3154L503.808 33.2919L519.449 24.2685V-11.8486ZM488.179 79.7578L503.82 70.7343L517.859 62.6327C517.813 62.4483 517.766 62.2524 517.766 62.045C517.766 60.9963 518.481 60.1204 519.449 59.8669V25.5937L503.808 34.6172L488.167 43.6407V79.7578H488.179ZM553.036 42.3154L584.318 24.2569V-11.8486L553.036 6.20993V42.3154ZM616.741 -30.564L585.46 -12.5055V23.6L616.741 5.54153V-30.564ZM647.574 24.0034L617.318 6.54413L586.036 24.6026L600.248 32.8079L617.318 42.6612L647.574 25.1904C647.528 25.006 647.482 24.8101 647.482 24.6026C647.482 24.3952 647.516 24.1993 647.574 24.0034ZM585.46 61.6992L616.741 79.7578V43.6523L585.46 25.5937V61.6992ZM551.884 79.7578V43.6523L520.602 25.5937V59.8554C521.57 60.1089 522.285 60.9847 522.285 62.0334C522.285 62.2409 522.25 62.4368 522.192 62.6212L551.884 79.7578ZM488.179 117.189L519.461 99.13V64.2C519.069 64.0963 518.712 63.9004 518.435 63.6123L503.831 72.048L488.19 81.0715V117.189H488.179ZM455.744 98.4732L487.026 80.4146V44.3091L455.744 62.3677V98.4732ZM423.31 42.3154L454.592 24.2685V-11.8486L423.31 6.20993V42.3154ZM422.157 4.88465V-31.2324L390.875 -49.2909V-13.1854L422.157 4.88465ZM358.452 -30.5525V5.54153L389.734 23.6V-12.5055L358.452 -30.5525ZM422.157 117.2V81.0946L390.875 63.0361V97.2977C391.843 97.5512 392.558 98.4271 392.558 99.4758C392.558 99.6832 392.523 99.8791 392.466 100.064L422.157 117.2ZM358.452 42.9838L389.734 61.0424V24.9369L358.452 6.87834V42.9838ZM357.299 -30.564L327.619 -13.4389C327.666 -13.2545 327.712 -13.0586 327.712 -12.8512C327.712 -11.8025 326.997 -10.9266 326.029 -10.6731V23.5885L357.299 5.54153V-30.564ZM357.299 81.0946L327.055 63.6353C326.778 63.9119 326.421 64.1193 326.029 64.2231V99.1531L357.311 117.212V81.0946H357.299ZM293.018 117.534L324.3 99.4758L293.594 81.7514L293.018 81.4173L292.442 81.7514L261.736 99.4758L293.018 117.534ZM259.431 99.4758L228.149 81.4173L196.867 99.4758L228.149 117.534L259.431 99.4758Z" fill="#8c8c8cbd"/>
</svg>
