<svg xmlns="http://www.w3.org/2000/svg" xmlns:xlink="http://www.w3.org/1999/xlink" width="210" zoomAndPan="magnify" viewBox="0 0 157.5 30.000001" height="40" preserveAspectRatio="xMidYMid meet" version="1.0"><defs><g/><clipPath id="b3c74177cc"><rect x="0" width="147" y="0" height="23"/></clipPath></defs><g transform="matrix(1, 0, 0, 1, 5, 3)"><g clip-path="url(#b3c74177cc)"><g fill="#00ee09" fill-opacity="1"><g transform="translate(0.20161, 17.808409)"><g><path d="M 11.828125 0 L 9.125 0 L 9.125 -5.609375 L 3.875 -5.609375 L 3.875 0 L 1.171875 0 L 1.171875 -13.09375 L 3.875 -13.09375 L 3.875 -7.796875 L 9.125 -7.796875 L 9.125 -13.09375 L 11.828125 -13.09375 Z M 11.828125 0 "/></g></g><g transform="translate(13.219274, 17.808409)"><g><path d="M 11.453125 -4.359375 C 11.347656 -2.953125 10.828125 -1.84375 9.890625 -1.03125 C 8.953125 -0.21875 7.710938 0.1875 6.171875 0.1875 C 4.492188 0.1875 3.175781 -0.378906 2.21875 -1.515625 C 1.257812 -2.648438 0.78125 -4.203125 0.78125 -6.171875 L 0.78125 -6.96875 C 0.78125 -8.226562 1 -9.335938 1.4375 -10.296875 C 1.882812 -11.253906 2.519531 -11.988281 3.34375 -12.5 C 4.164062 -13.019531 5.125 -13.28125 6.21875 -13.28125 C 7.726562 -13.28125 8.941406 -12.875 9.859375 -12.0625 C 10.785156 -11.25 11.320312 -10.113281 11.46875 -8.65625 L 8.765625 -8.65625 C 8.703125 -9.5 8.46875 -10.109375 8.0625 -10.484375 C 7.65625 -10.867188 7.039062 -11.0625 6.21875 -11.0625 C 5.3125 -11.0625 4.632812 -10.738281 4.1875 -10.09375 C 3.75 -9.445312 3.523438 -8.445312 3.515625 -7.09375 L 3.515625 -6.109375 C 3.515625 -4.691406 3.726562 -3.65625 4.15625 -3 C 4.582031 -2.351562 5.253906 -2.03125 6.171875 -2.03125 C 7.015625 -2.03125 7.640625 -2.21875 8.046875 -2.59375 C 8.453125 -2.976562 8.6875 -3.566406 8.75 -4.359375 Z M 11.453125 -4.359375 "/></g></g><g transform="translate(25.274333, 17.808409)"><g><path d="M 3.875 -2.171875 L 9.59375 -2.171875 L 9.59375 0 L 1.171875 0 L 1.171875 -13.09375 L 3.875 -13.09375 Z M 3.875 -2.171875 "/></g></g><g transform="translate(35.251243, 17.808409)"><g/></g><g transform="translate(39.839362, 17.808409)"><g><path d="M 11.453125 -4.359375 C 11.347656 -2.953125 10.828125 -1.84375 9.890625 -1.03125 C 8.953125 -0.21875 7.710938 0.1875 6.171875 0.1875 C 4.492188 0.1875 3.175781 -0.378906 2.21875 -1.515625 C 1.257812 -2.648438 0.78125 -4.203125 0.78125 -6.171875 L 0.78125 -6.96875 C 0.78125 -8.226562 1 -9.335938 1.4375 -10.296875 C 1.882812 -11.253906 2.519531 -11.988281 3.34375 -12.5 C 4.164062 -13.019531 5.125 -13.28125 6.21875 -13.28125 C 7.726562 -13.28125 8.941406 -12.875 9.859375 -12.0625 C 10.785156 -11.25 11.320312 -10.113281 11.46875 -8.65625 L 8.765625 -8.65625 C 8.703125 -9.5 8.46875 -10.109375 8.0625 -10.484375 C 7.65625 -10.867188 7.039062 -11.0625 6.21875 -11.0625 C 5.3125 -11.0625 4.632812 -10.738281 4.1875 -10.09375 C 3.75 -9.445312 3.523438 -8.445312 3.515625 -7.09375 L 3.515625 -6.109375 C 3.515625 -4.691406 3.726562 -3.65625 4.15625 -3 C 4.582031 -2.351562 5.253906 -2.03125 6.171875 -2.03125 C 7.015625 -2.03125 7.640625 -2.21875 8.046875 -2.59375 C 8.453125 -2.976562 8.6875 -3.566406 8.75 -4.359375 Z M 11.453125 -4.359375 "/></g></g><g transform="translate(51.894421, 17.808409)"><g><path d="M 0.59375 -4.953125 C 0.59375 -5.921875 0.773438 -6.78125 1.140625 -7.53125 C 1.515625 -8.289062 2.050781 -8.875 2.75 -9.28125 C 3.457031 -9.695312 4.269531 -9.90625 5.1875 -9.90625 C 6.5 -9.90625 7.570312 -9.503906 8.40625 -8.703125 C 9.238281 -7.898438 9.703125 -6.8125 9.796875 -5.4375 L 9.8125 -4.765625 C 9.8125 -3.273438 9.394531 -2.078125 8.5625 -1.171875 C 7.726562 -0.265625 6.609375 0.1875 5.203125 0.1875 C 3.804688 0.1875 2.6875 -0.257812 1.84375 -1.15625 C 1.007812 -2.0625 0.59375 -3.289062 0.59375 -4.84375 Z M 3.1875 -4.765625 C 3.1875 -3.835938 3.359375 -3.128906 3.703125 -2.640625 C 4.054688 -2.160156 4.554688 -1.921875 5.203125 -1.921875 C 5.835938 -1.921875 6.332031 -2.160156 6.6875 -2.640625 C 7.039062 -3.117188 7.21875 -3.890625 7.21875 -4.953125 C 7.21875 -5.859375 7.039062 -6.5625 6.6875 -7.0625 C 6.332031 -7.5625 5.832031 -7.8125 5.1875 -7.8125 C 4.550781 -7.8125 4.054688 -7.5625 3.703125 -7.0625 C 3.359375 -6.570312 3.1875 -5.804688 3.1875 -4.765625 Z M 3.1875 -4.765625 "/></g></g><g transform="translate(62.312151, 17.808409)"><g><path d="M 3.390625 -9.734375 L 3.46875 -8.609375 C 4.164062 -9.472656 5.097656 -9.90625 6.265625 -9.90625 C 7.296875 -9.90625 8.0625 -9.601562 8.5625 -9 C 9.070312 -8.394531 9.332031 -7.488281 9.34375 -6.28125 L 9.34375 0 L 6.75 0 L 6.75 -6.21875 C 6.75 -6.769531 6.628906 -7.171875 6.390625 -7.421875 C 6.148438 -7.671875 5.75 -7.796875 5.1875 -7.796875 C 4.457031 -7.796875 3.910156 -7.484375 3.546875 -6.859375 L 3.546875 0 L 0.9375 0 L 0.9375 -9.734375 Z M 3.390625 -9.734375 "/></g></g><g transform="translate(72.630921, 17.808409)"><g><path d="M 6.265625 -2.6875 C 6.265625 -3.007812 6.109375 -3.257812 5.796875 -3.4375 C 5.484375 -3.625 4.976562 -3.789062 4.28125 -3.9375 C 1.96875 -4.414062 0.8125 -5.394531 0.8125 -6.875 C 0.8125 -7.738281 1.164062 -8.457031 1.875 -9.03125 C 2.59375 -9.613281 3.535156 -9.90625 4.703125 -9.90625 C 5.929688 -9.90625 6.914062 -9.613281 7.65625 -9.03125 C 8.394531 -8.457031 8.765625 -7.703125 8.765625 -6.765625 L 6.171875 -6.765625 C 6.171875 -7.140625 6.050781 -7.445312 5.8125 -7.6875 C 5.570312 -7.9375 5.195312 -8.0625 4.6875 -8.0625 C 4.25 -8.0625 3.910156 -7.960938 3.671875 -7.765625 C 3.429688 -7.566406 3.3125 -7.3125 3.3125 -7 C 3.3125 -6.71875 3.445312 -6.488281 3.71875 -6.3125 C 3.988281 -6.132812 4.445312 -5.976562 5.09375 -5.84375 C 5.75 -5.71875 6.296875 -5.578125 6.734375 -5.421875 C 8.109375 -4.910156 8.796875 -4.035156 8.796875 -2.796875 C 8.796875 -1.910156 8.414062 -1.191406 7.65625 -0.640625 C 6.894531 -0.0859375 5.910156 0.1875 4.703125 0.1875 C 3.890625 0.1875 3.164062 0.0390625 2.53125 -0.25 C 1.894531 -0.539062 1.394531 -0.941406 1.03125 -1.453125 C 0.675781 -1.960938 0.5 -2.507812 0.5 -3.09375 L 2.96875 -3.09375 C 2.988281 -2.632812 3.15625 -2.28125 3.46875 -2.03125 C 3.789062 -1.789062 4.222656 -1.671875 4.765625 -1.671875 C 5.253906 -1.671875 5.625 -1.765625 5.875 -1.953125 C 6.132812 -2.140625 6.265625 -2.382812 6.265625 -2.6875 Z M 6.265625 -2.6875 "/></g></g><g transform="translate(82.104038, 17.808409)"><g><path d="M 4.109375 -12.125 L 4.109375 -9.734375 L 5.78125 -9.734375 L 5.78125 -7.828125 L 4.109375 -7.828125 L 4.109375 -2.96875 C 4.109375 -2.601562 4.175781 -2.34375 4.3125 -2.1875 C 4.457031 -2.03125 4.722656 -1.953125 5.109375 -1.953125 C 5.398438 -1.953125 5.65625 -1.976562 5.875 -2.03125 L 5.875 -0.046875 C 5.363281 0.109375 4.835938 0.1875 4.296875 0.1875 C 2.472656 0.1875 1.546875 -0.734375 1.515625 -2.578125 L 1.515625 -7.828125 L 0.09375 -7.828125 L 0.09375 -9.734375 L 1.515625 -9.734375 L 1.515625 -12.125 Z M 4.109375 -12.125 "/></g></g><g transform="translate(88.329486, 17.808409)"><g><path d="M 6.46875 -7.296875 C 6.113281 -7.335938 5.800781 -7.359375 5.53125 -7.359375 C 4.550781 -7.359375 3.90625 -7.03125 3.59375 -6.375 L 3.59375 0 L 1 0 L 1 -9.734375 L 3.453125 -9.734375 L 3.53125 -8.578125 C 4.050781 -9.460938 4.769531 -9.90625 5.6875 -9.90625 C 5.976562 -9.90625 6.25 -9.867188 6.5 -9.796875 Z M 6.46875 -7.296875 "/></g></g><g transform="translate(95.049731, 17.808409)"><g><path d="M 6.828125 -0.984375 C 6.179688 -0.203125 5.296875 0.1875 4.171875 0.1875 C 3.117188 0.1875 2.316406 -0.113281 1.765625 -0.71875 C 1.222656 -1.320312 0.945312 -2.203125 0.9375 -3.359375 L 0.9375 -9.734375 L 3.53125 -9.734375 L 3.53125 -3.4375 C 3.53125 -2.425781 3.992188 -1.921875 4.921875 -1.921875 C 5.804688 -1.921875 6.410156 -2.226562 6.734375 -2.84375 L 6.734375 -9.734375 L 9.34375 -9.734375 L 9.34375 0 L 6.90625 0 Z M 6.828125 -0.984375 "/></g></g><g transform="translate(105.359505, 17.808409)"><g><path d="M 5.046875 -1.921875 C 5.523438 -1.921875 5.914062 -2.050781 6.21875 -2.3125 C 6.519531 -2.570312 6.675781 -2.921875 6.6875 -3.359375 L 9.125 -3.359375 C 9.113281 -2.703125 8.929688 -2.097656 8.578125 -1.546875 C 8.222656 -1.003906 7.738281 -0.578125 7.125 -0.265625 C 6.507812 0.0351562 5.832031 0.1875 5.09375 0.1875 C 3.695312 0.1875 2.597656 -0.253906 1.796875 -1.140625 C 0.992188 -2.023438 0.59375 -3.25 0.59375 -4.8125 L 0.59375 -4.984375 C 0.59375 -6.484375 0.988281 -7.675781 1.78125 -8.5625 C 2.582031 -9.457031 3.679688 -9.90625 5.078125 -9.90625 C 6.296875 -9.90625 7.269531 -9.554688 8 -8.859375 C 8.738281 -8.171875 9.113281 -7.253906 9.125 -6.109375 L 6.6875 -6.109375 C 6.675781 -6.609375 6.519531 -7.015625 6.21875 -7.328125 C 5.914062 -7.648438 5.519531 -7.8125 5.03125 -7.8125 C 4.425781 -7.8125 3.96875 -7.585938 3.65625 -7.140625 C 3.34375 -6.703125 3.1875 -5.988281 3.1875 -5 L 3.1875 -4.734375 C 3.1875 -3.734375 3.335938 -3.015625 3.640625 -2.578125 C 3.953125 -2.140625 4.421875 -1.921875 5.046875 -1.921875 Z M 5.046875 -1.921875 "/></g></g><g transform="translate(114.967567, 17.808409)"><g><path d="M 4.109375 -12.125 L 4.109375 -9.734375 L 5.78125 -9.734375 L 5.78125 -7.828125 L 4.109375 -7.828125 L 4.109375 -2.96875 C 4.109375 -2.601562 4.175781 -2.34375 4.3125 -2.1875 C 4.457031 -2.03125 4.722656 -1.953125 5.109375 -1.953125 C 5.398438 -1.953125 5.65625 -1.976562 5.875 -2.03125 L 5.875 -0.046875 C 5.363281 0.109375 4.835938 0.1875 4.296875 0.1875 C 2.472656 0.1875 1.546875 -0.734375 1.515625 -2.578125 L 1.515625 -7.828125 L 0.09375 -7.828125 L 0.09375 -9.734375 L 1.515625 -9.734375 L 1.515625 -12.125 Z M 4.109375 -12.125 "/></g></g><g transform="translate(121.193015, 17.808409)"><g><path d="M 3.734375 0 L 1.140625 0 L 1.140625 -9.734375 L 3.734375 -9.734375 Z M 0.984375 -12.25 C 0.984375 -12.644531 1.113281 -12.96875 1.375 -13.21875 C 1.632812 -13.46875 1.988281 -13.59375 2.4375 -13.59375 C 2.882812 -13.59375 3.238281 -13.46875 3.5 -13.21875 C 3.757812 -12.96875 3.890625 -12.644531 3.890625 -12.25 C 3.890625 -11.851562 3.753906 -11.53125 3.484375 -11.28125 C 3.222656 -11.03125 2.875 -10.90625 2.4375 -10.90625 C 2 -10.90625 1.644531 -11.03125 1.375 -11.28125 C 1.113281 -11.53125 0.984375 -11.851562 0.984375 -12.25 Z M 0.984375 -12.25 "/></g></g><g transform="translate(126.078012, 17.808409)"><g><path d="M 0.59375 -4.953125 C 0.59375 -5.921875 0.773438 -6.78125 1.140625 -7.53125 C 1.515625 -8.289062 2.050781 -8.875 2.75 -9.28125 C 3.457031 -9.695312 4.269531 -9.90625 5.1875 -9.90625 C 6.5 -9.90625 7.570312 -9.503906 8.40625 -8.703125 C 9.238281 -7.898438 9.703125 -6.8125 9.796875 -5.4375 L 9.8125 -4.765625 C 9.8125 -3.273438 9.394531 -2.078125 8.5625 -1.171875 C 7.726562 -0.265625 6.609375 0.1875 5.203125 0.1875 C 3.804688 0.1875 2.6875 -0.257812 1.84375 -1.15625 C 1.007812 -2.0625 0.59375 -3.289062 0.59375 -4.84375 Z M 3.1875 -4.765625 C 3.1875 -3.835938 3.359375 -3.128906 3.703125 -2.640625 C 4.054688 -2.160156 4.554688 -1.921875 5.203125 -1.921875 C 5.835938 -1.921875 6.332031 -2.160156 6.6875 -2.640625 C 7.039062 -3.117188 7.21875 -3.890625 7.21875 -4.953125 C 7.21875 -5.859375 7.039062 -6.5625 6.6875 -7.0625 C 6.332031 -7.5625 5.832031 -7.8125 5.1875 -7.8125 C 4.550781 -7.8125 4.054688 -7.5625 3.703125 -7.0625 C 3.359375 -6.570312 3.1875 -5.804688 3.1875 -4.765625 Z M 3.1875 -4.765625 "/></g></g><g transform="translate(136.495742, 17.808409)"><g><path d="M 3.390625 -9.734375 L 3.46875 -8.609375 C 4.164062 -9.472656 5.097656 -9.90625 6.265625 -9.90625 C 7.296875 -9.90625 8.0625 -9.601562 8.5625 -9 C 9.070312 -8.394531 9.332031 -7.488281 9.34375 -6.28125 L 9.34375 0 L 6.75 0 L 6.75 -6.21875 C 6.75 -6.769531 6.628906 -7.171875 6.390625 -7.421875 C 6.148438 -7.671875 5.75 -7.796875 5.1875 -7.796875 C 4.457031 -7.796875 3.910156 -7.484375 3.546875 -6.859375 L 3.546875 0 L 0.9375 0 L 0.9375 -9.734375 Z M 3.390625 -9.734375 "/></g></g></g></g></g></svg>