<svg xmlns="http://www.w3.org/2000/svg" xmlns:xlink="http://www.w3.org/1999/xlink" width="500" zoomAndPan="magnify" viewBox="0 0 375 186.749996" height="249" preserveAspectRatio="xMidYMid meet" version="1.0"><defs><filter x="0%" y="0%" width="100%" height="100%" id="a8d40c4f51"><feColorMatrix values="0 0 0 0 1 0 0 0 0 1 0 0 0 0 1 0 0 0 1 0" color-interpolation-filters="sRGB"/></filter><g/><clipPath id="b33d29f740"><path d="M 203 37 L 219 37 L 219 52 L 203 52 Z M 203 37 " clip-rule="nonzero"/></clipPath><clipPath id="7197fb1f7c"><path d="M 244.027344 24.523438 L 201.464844 84.328125 L 130.679688 33.949219 L 173.242188 -25.855469 Z M 244.027344 24.523438 " clip-rule="nonzero"/></clipPath><clipPath id="1e4e836e17"><path d="M 244.027344 24.523438 L 201.464844 84.328125 L 130.679688 33.949219 L 173.242188 -25.855469 Z M 244.027344 24.523438 " clip-rule="nonzero"/></clipPath><clipPath id="23fe5637c7"><path d="M 244.027344 24.523438 L 201.464844 84.328125 L 130.679688 33.949219 L 173.242188 -25.855469 Z M 244.027344 24.523438 " clip-rule="nonzero"/></clipPath><clipPath id="7fe2539533"><path d="M 167 20 L 179 20 L 179 40 L 167 40 Z M 167 20 " clip-rule="nonzero"/></clipPath><clipPath id="04d0b2956e"><path d="M 244.027344 24.523438 L 201.464844 84.328125 L 130.679688 33.949219 L 173.242188 -25.855469 Z M 244.027344 24.523438 " clip-rule="nonzero"/></clipPath><clipPath id="9061d8d80d"><path d="M 244.027344 24.523438 L 201.464844 84.328125 L 130.679688 33.949219 L 173.242188 -25.855469 Z M 244.027344 24.523438 " clip-rule="nonzero"/></clipPath><clipPath id="a2cdfe3193"><path d="M 244.027344 24.523438 L 201.464844 84.328125 L 130.679688 33.949219 L 173.242188 -25.855469 Z M 244.027344 24.523438 " clip-rule="nonzero"/></clipPath><clipPath id="4fafffff7d"><path d="M 190 24 L 203 24 L 203 39 L 190 39 Z M 190 24 " clip-rule="nonzero"/></clipPath><clipPath id="1c0ecfa040"><path d="M 244.027344 24.523438 L 201.464844 84.328125 L 130.679688 33.949219 L 173.242188 -25.855469 Z M 244.027344 24.523438 " clip-rule="nonzero"/></clipPath><clipPath id="69f1749a06"><path d="M 244.027344 24.523438 L 201.464844 84.328125 L 130.679688 33.949219 L 173.242188 -25.855469 Z M 244.027344 24.523438 " clip-rule="nonzero"/></clipPath><clipPath id="22dc38ca29"><path d="M 244.027344 24.523438 L 201.464844 84.328125 L 130.679688 33.949219 L 173.242188 -25.855469 Z M 244.027344 24.523438 " clip-rule="nonzero"/></clipPath><clipPath id="ddd53b7edd"><path d="M 199 18 L 213 18 L 213 34 L 199 34 Z M 199 18 " clip-rule="nonzero"/></clipPath><clipPath id="eec84e17c8"><path d="M 244.027344 24.523438 L 201.464844 84.328125 L 130.679688 33.949219 L 173.242188 -25.855469 Z M 244.027344 24.523438 " clip-rule="nonzero"/></clipPath><clipPath id="d658d38855"><path d="M 244.027344 24.523438 L 201.464844 84.328125 L 130.679688 33.949219 L 173.242188 -25.855469 Z M 244.027344 24.523438 " clip-rule="nonzero"/></clipPath><clipPath id="0844c6394b"><path d="M 244.027344 24.523438 L 201.464844 84.328125 L 130.679688 33.949219 L 173.242188 -25.855469 Z M 244.027344 24.523438 " clip-rule="nonzero"/></clipPath><clipPath id="f61c4bc9a2"><path d="M 212 33 L 230 33 L 230 44 L 212 44 Z M 212 33 " clip-rule="nonzero"/></clipPath><clipPath id="fba15290d1"><path d="M 244.027344 24.523438 L 201.464844 84.328125 L 130.679688 33.949219 L 173.242188 -25.855469 Z M 244.027344 24.523438 " clip-rule="nonzero"/></clipPath><clipPath id="158c6ca468"><path d="M 244.027344 24.523438 L 201.464844 84.328125 L 130.679688 33.949219 L 173.242188 -25.855469 Z M 244.027344 24.523438 " clip-rule="nonzero"/></clipPath><clipPath id="3a3541babb"><path d="M 244.027344 24.523438 L 201.464844 84.328125 L 130.679688 33.949219 L 173.242188 -25.855469 Z M 244.027344 24.523438 " clip-rule="nonzero"/></clipPath><clipPath id="b57289a03e"><path d="M 213 8 L 222 8 L 222 29 L 213 29 Z M 213 8 " clip-rule="nonzero"/></clipPath><clipPath id="42f7788c29"><path d="M 244.027344 24.523438 L 201.464844 84.328125 L 130.679688 33.949219 L 173.242188 -25.855469 Z M 244.027344 24.523438 " clip-rule="nonzero"/></clipPath><clipPath id="3f8ad3f2e3"><path d="M 244.027344 24.523438 L 201.464844 84.328125 L 130.679688 33.949219 L 173.242188 -25.855469 Z M 244.027344 24.523438 " clip-rule="nonzero"/></clipPath><clipPath id="ef7ce3bb20"><path d="M 244.027344 24.523438 L 201.464844 84.328125 L 130.679688 33.949219 L 173.242188 -25.855469 Z M 244.027344 24.523438 " clip-rule="nonzero"/></clipPath><clipPath id="e907b567f1"><path d="M 190 39 L 207 39 L 207 56 L 190 56 Z M 190 39 " clip-rule="nonzero"/></clipPath><clipPath id="4cf2d51e12"><path d="M 244.027344 24.523438 L 201.464844 84.328125 L 130.679688 33.949219 L 173.242188 -25.855469 Z M 244.027344 24.523438 " clip-rule="nonzero"/></clipPath><clipPath id="995017056a"><path d="M 244.027344 24.523438 L 201.464844 84.328125 L 130.679688 33.949219 L 173.242188 -25.855469 Z M 244.027344 24.523438 " clip-rule="nonzero"/></clipPath><clipPath id="8502c61ab0"><path d="M 244.027344 24.523438 L 201.464844 84.328125 L 130.679688 33.949219 L 173.242188 -25.855469 Z M 244.027344 24.523438 " clip-rule="nonzero"/></clipPath><clipPath id="2a645441e4"><path d="M 179 20 L 193 20 L 193 41 L 179 41 Z M 179 20 " clip-rule="nonzero"/></clipPath><clipPath id="e56e8c46f0"><path d="M 244.027344 24.523438 L 201.464844 84.328125 L 130.679688 33.949219 L 173.242188 -25.855469 Z M 244.027344 24.523438 " clip-rule="nonzero"/></clipPath><clipPath id="cb9579de05"><path d="M 244.027344 24.523438 L 201.464844 84.328125 L 130.679688 33.949219 L 173.242188 -25.855469 Z M 244.027344 24.523438 " clip-rule="nonzero"/></clipPath><clipPath id="e82f18fea8"><path d="M 244.027344 24.523438 L 201.464844 84.328125 L 130.679688 33.949219 L 173.242188 -25.855469 Z M 244.027344 24.523438 " clip-rule="nonzero"/></clipPath><clipPath id="dc5d75c017"><path d="M 177 39 L 189 39 L 189 58 L 177 58 Z M 177 39 " clip-rule="nonzero"/></clipPath><clipPath id="42ecb0abfd"><path d="M 244.027344 24.523438 L 201.464844 84.328125 L 130.679688 33.949219 L 173.242188 -25.855469 Z M 244.027344 24.523438 " clip-rule="nonzero"/></clipPath><clipPath id="4221b8d1b8"><path d="M 244.027344 24.523438 L 201.464844 84.328125 L 130.679688 33.949219 L 173.242188 -25.855469 Z M 244.027344 24.523438 " clip-rule="nonzero"/></clipPath><clipPath id="34f4da76fb"><path d="M 244.027344 24.523438 L 201.464844 84.328125 L 130.679688 33.949219 L 173.242188 -25.855469 Z M 244.027344 24.523438 " clip-rule="nonzero"/></clipPath><clipPath id="b6336fdb20"><path d="M 164 36 L 177 36 L 177 57 L 164 57 Z M 164 36 " clip-rule="nonzero"/></clipPath><clipPath id="9e2da6c984"><path d="M 244.027344 24.523438 L 201.464844 84.328125 L 130.679688 33.949219 L 173.242188 -25.855469 Z M 244.027344 24.523438 " clip-rule="nonzero"/></clipPath><clipPath id="ef1a2464fc"><path d="M 244.027344 24.523438 L 201.464844 84.328125 L 130.679688 33.949219 L 173.242188 -25.855469 Z M 244.027344 24.523438 " clip-rule="nonzero"/></clipPath><clipPath id="564ddd0e00"><path d="M 244.027344 24.523438 L 201.464844 84.328125 L 130.679688 33.949219 L 173.242188 -25.855469 Z M 244.027344 24.523438 " clip-rule="nonzero"/></clipPath><clipPath id="b60adef7d4"><path d="M 157 16 L 167 16 L 167 38 L 157 38 Z M 157 16 " clip-rule="nonzero"/></clipPath><clipPath id="7582f14aad"><path d="M 244.027344 24.523438 L 201.464844 84.328125 L 130.679688 33.949219 L 173.242188 -25.855469 Z M 244.027344 24.523438 " clip-rule="nonzero"/></clipPath><clipPath id="053b56ba70"><path d="M 244.027344 24.523438 L 201.464844 84.328125 L 130.679688 33.949219 L 173.242188 -25.855469 Z M 244.027344 24.523438 " clip-rule="nonzero"/></clipPath><clipPath id="4d05ff340c"><path d="M 244.027344 24.523438 L 201.464844 84.328125 L 130.679688 33.949219 L 173.242188 -25.855469 Z M 244.027344 24.523438 " clip-rule="nonzero"/></clipPath><clipPath id="47a381a173"><path d="M 151 32 L 162 32 L 162 53 L 151 53 Z M 151 32 " clip-rule="nonzero"/></clipPath><clipPath id="a6902aba57"><path d="M 244.027344 24.523438 L 201.464844 84.328125 L 130.679688 33.949219 L 173.242188 -25.855469 Z M 244.027344 24.523438 " clip-rule="nonzero"/></clipPath><clipPath id="34a699944e"><path d="M 244.027344 24.523438 L 201.464844 84.328125 L 130.679688 33.949219 L 173.242188 -25.855469 Z M 244.027344 24.523438 " clip-rule="nonzero"/></clipPath><clipPath id="a50ac2caf0"><path d="M 244.027344 24.523438 L 201.464844 84.328125 L 130.679688 33.949219 L 173.242188 -25.855469 Z M 244.027344 24.523438 " clip-rule="nonzero"/></clipPath><clipPath id="f752e90f6b"><path d="M 161 13 L 222 13 L 222 64 L 161 64 Z M 161 13 " clip-rule="nonzero"/></clipPath><clipPath id="18ca748bad"><path d="M 244.027344 24.523438 L 201.464844 84.328125 L 130.679688 33.949219 L 173.242188 -25.855469 Z M 244.027344 24.523438 " clip-rule="nonzero"/></clipPath><clipPath id="6a3b3adf46"><path d="M 244.027344 24.523438 L 201.464844 84.328125 L 130.679688 33.949219 L 173.242188 -25.855469 Z M 244.027344 24.523438 " clip-rule="nonzero"/></clipPath><clipPath id="8be9020603"><path d="M 244.027344 24.523438 L 201.464844 84.328125 L 130.679688 33.949219 L 173.242188 -25.855469 Z M 244.027344 24.523438 " clip-rule="nonzero"/></clipPath><mask id="ea64e1021d"><g filter="url(#a8d40c4f51)"><rect x="-37.5" width="450" fill="#000000" y="-18.675" height="224.099995" fill-opacity="0.8"/></g></mask><clipPath id="25dd3303fe"><path d="M 42 24 L 58 24 L 58 39 L 42 39 Z M 42 24 " clip-rule="nonzero"/></clipPath><clipPath id="65750b7b28"><path d="M 83.027344 11.523438 L 40.464844 71.328125 L -30.320312 20.949219 L 12.242188 -38.855469 Z M 83.027344 11.523438 " clip-rule="nonzero"/></clipPath><clipPath id="2fc9f3f710"><path d="M 83.027344 11.523438 L 40.464844 71.328125 L -30.320312 20.949219 L 12.242188 -38.855469 Z M 83.027344 11.523438 " clip-rule="nonzero"/></clipPath><clipPath id="3af1392c51"><path d="M 83.027344 11.523438 L 40.464844 71.328125 L -30.320312 20.949219 L 12.242188 -38.855469 Z M 83.027344 11.523438 " clip-rule="nonzero"/></clipPath><clipPath id="48e469566e"><path d="M 6 7 L 18 7 L 18 27 L 6 27 Z M 6 7 " clip-rule="nonzero"/></clipPath><clipPath id="f5c17afc34"><path d="M 83.027344 11.523438 L 40.464844 71.328125 L -30.320312 20.949219 L 12.242188 -38.855469 Z M 83.027344 11.523438 " clip-rule="nonzero"/></clipPath><clipPath id="76a9fd1f14"><path d="M 83.027344 11.523438 L 40.464844 71.328125 L -30.320312 20.949219 L 12.242188 -38.855469 Z M 83.027344 11.523438 " clip-rule="nonzero"/></clipPath><clipPath id="2b7e2953c9"><path d="M 83.027344 11.523438 L 40.464844 71.328125 L -30.320312 20.949219 L 12.242188 -38.855469 Z M 83.027344 11.523438 " clip-rule="nonzero"/></clipPath><clipPath id="cfd115b5bc"><rect x="0" width="61" y="0" height="51"/></clipPath><clipPath id="7d19e350e6"><path d="M 140 22 L 216 22 L 216 41 L 140 41 Z M 140 22 " clip-rule="nonzero"/></clipPath><clipPath id="d8ff2545f4"><path d="M 244.027344 24.523438 L 201.464844 84.328125 L 130.679688 33.949219 L 173.242188 -25.855469 Z M 244.027344 24.523438 " clip-rule="nonzero"/></clipPath><clipPath id="1da16b6aa7"><path d="M 244.027344 24.523438 L 201.464844 84.328125 L 130.679688 33.949219 L 173.242188 -25.855469 Z M 244.027344 24.523438 " clip-rule="nonzero"/></clipPath><clipPath id="add556c757"><path d="M 244.027344 24.523438 L 201.464844 84.328125 L 130.679688 33.949219 L 173.242188 -25.855469 Z M 244.027344 24.523438 " clip-rule="nonzero"/></clipPath></defs><g fill="#000000" fill-opacity="1"><g transform="translate(58.2621, 108.645042)"><g><path d="M 18.734375 -4.125 L 18.734375 0 L 3 0 L 3 -26.875 L 7.984375 -26.875 L 7.984375 -4.125 Z M 18.734375 -4.125 "/></g></g></g><g fill="#000000" fill-opacity="1"><g transform="translate(82.033868, 108.645042)"><g><path d="M 17.1875 -10.140625 L 13.921875 -19.09375 C 13.753906 -19.488281 13.582031 -19.957031 13.40625 -20.5 C 13.238281 -21.039062 13.070312 -21.628906 12.90625 -22.265625 C 12.738281 -21.628906 12.566406 -21.035156 12.390625 -20.484375 C 12.222656 -19.929688 12.054688 -19.453125 11.890625 -19.046875 L 8.640625 -10.140625 Z M 26.015625 0 L 22.15625 0 C 21.71875 0 21.363281 -0.109375 21.09375 -0.328125 C 20.820312 -0.546875 20.617188 -0.816406 20.484375 -1.140625 L 18.46875 -6.609375 L 7.34375 -6.609375 L 5.328125 -1.140625 C 5.234375 -0.847656 5.039062 -0.582031 4.75 -0.34375 C 4.46875 -0.113281 4.117188 0 3.703125 0 L -0.203125 0 L 10.375 -26.875 L 15.46875 -26.875 Z M 26.015625 0 "/></g></g></g><g fill="#000000" fill-opacity="1"><g transform="translate(112.310496, 108.645042)"><g><path d="M 7.984375 -15.609375 L 9.15625 -15.609375 C 9.632812 -15.609375 10.023438 -15.671875 10.328125 -15.796875 C 10.640625 -15.929688 10.910156 -16.144531 11.140625 -16.4375 L 18.546875 -25.8125 C 18.859375 -26.207031 19.179688 -26.484375 19.515625 -26.640625 C 19.859375 -26.796875 20.289062 -26.875 20.8125 -26.875 L 25.125 -26.875 L 16.078125 -15.703125 C 15.546875 -15.023438 14.992188 -14.539062 14.421875 -14.25 C 14.828125 -14.101562 15.191406 -13.894531 15.515625 -13.625 C 15.847656 -13.363281 16.164062 -13.015625 16.46875 -12.578125 L 25.796875 0 L 21.390625 0 C 20.796875 0 20.351562 -0.0820312 20.0625 -0.25 C 19.769531 -0.414062 19.523438 -0.660156 19.328125 -0.984375 L 11.734375 -10.90625 C 11.492188 -11.238281 11.21875 -11.472656 10.90625 -11.609375 C 10.59375 -11.753906 10.148438 -11.828125 9.578125 -11.828125 L 7.984375 -11.828125 L 7.984375 0 L 3 0 L 3 -26.875 L 7.984375 -26.875 Z M 7.984375 -15.609375 "/></g></g></g><g fill="#000000" fill-opacity="1"><g transform="translate(142.252598, 108.645042)"><g><path d="M 8.015625 -22.890625 L 8.015625 -15.4375 L 17.421875 -15.4375 L 17.421875 -11.59375 L 8.015625 -11.59375 L 8.015625 -4 L 19.9375 -4 L 19.9375 0 L 3 0 L 3 -26.875 L 19.9375 -26.875 L 19.9375 -22.890625 Z M 8.015625 -22.890625 "/></g></g></g><g fill="#000000" fill-opacity="1"><g transform="translate(168.087343, 108.645042)"><g><path d="M 17.296875 -21.984375 C 17.148438 -21.722656 16.992188 -21.535156 16.828125 -21.421875 C 16.660156 -21.304688 16.453125 -21.25 16.203125 -21.25 C 15.941406 -21.25 15.660156 -21.34375 15.359375 -21.53125 C 15.054688 -21.71875 14.691406 -21.929688 14.265625 -22.171875 C 13.847656 -22.410156 13.359375 -22.625 12.796875 -22.8125 C 12.234375 -23.007812 11.566406 -23.109375 10.796875 -23.109375 C 10.097656 -23.109375 9.488281 -23.019531 8.96875 -22.84375 C 8.457031 -22.675781 8.023438 -22.441406 7.671875 -22.140625 C 7.316406 -21.847656 7.050781 -21.492188 6.875 -21.078125 C 6.695312 -20.671875 6.609375 -20.21875 6.609375 -19.71875 C 6.609375 -19.082031 6.785156 -18.554688 7.140625 -18.140625 C 7.492188 -17.722656 7.960938 -17.363281 8.546875 -17.0625 C 9.128906 -16.757812 9.789062 -16.488281 10.53125 -16.25 C 11.28125 -16.019531 12.046875 -15.769531 12.828125 -15.5 C 13.609375 -15.238281 14.367188 -14.929688 15.109375 -14.578125 C 15.847656 -14.222656 16.507812 -13.773438 17.09375 -13.234375 C 17.675781 -12.703125 18.144531 -12.046875 18.5 -11.265625 C 18.851562 -10.484375 19.03125 -9.535156 19.03125 -8.421875 C 19.03125 -7.203125 18.820312 -6.0625 18.40625 -5 C 17.988281 -3.945312 17.378906 -3.023438 16.578125 -2.234375 C 15.785156 -1.453125 14.8125 -0.832031 13.65625 -0.375 C 12.507812 0.0703125 11.191406 0.296875 9.703125 0.296875 C 8.847656 0.296875 8.003906 0.210938 7.171875 0.046875 C 6.335938 -0.117188 5.539062 -0.359375 4.78125 -0.671875 C 4.019531 -0.984375 3.304688 -1.351562 2.640625 -1.78125 C 1.972656 -2.21875 1.378906 -2.703125 0.859375 -3.234375 L 2.328125 -5.625 C 2.453125 -5.800781 2.613281 -5.945312 2.8125 -6.0625 C 3.007812 -6.1875 3.21875 -6.25 3.4375 -6.25 C 3.75 -6.25 4.082031 -6.117188 4.4375 -5.859375 C 4.800781 -5.609375 5.226562 -5.328125 5.71875 -5.015625 C 6.21875 -4.703125 6.796875 -4.421875 7.453125 -4.171875 C 8.117188 -3.921875 8.914062 -3.796875 9.84375 -3.796875 C 11.269531 -3.796875 12.375 -4.128906 13.15625 -4.796875 C 13.9375 -5.472656 14.328125 -6.445312 14.328125 -7.71875 C 14.328125 -8.414062 14.148438 -8.988281 13.796875 -9.4375 C 13.441406 -9.882812 12.972656 -10.257812 12.390625 -10.5625 C 11.804688 -10.863281 11.144531 -11.117188 10.40625 -11.328125 C 9.664062 -11.546875 8.910156 -11.773438 8.140625 -12.015625 C 7.367188 -12.265625 6.613281 -12.5625 5.875 -12.90625 C 5.132812 -13.257812 4.472656 -13.710938 3.890625 -14.265625 C 3.304688 -14.828125 2.835938 -15.523438 2.484375 -16.359375 C 2.128906 -17.203125 1.953125 -18.234375 1.953125 -19.453125 C 1.953125 -20.429688 2.144531 -21.382812 2.53125 -22.3125 C 2.925781 -23.25 3.492188 -24.078125 4.234375 -24.796875 C 4.984375 -25.515625 5.898438 -26.085938 6.984375 -26.515625 C 8.078125 -26.953125 9.332031 -27.171875 10.75 -27.171875 C 12.332031 -27.171875 13.789062 -26.921875 15.125 -26.421875 C 16.46875 -25.929688 17.609375 -25.238281 18.546875 -24.34375 Z M 17.296875 -21.984375 "/></g></g></g><g fill="#000000" fill-opacity="1"><g transform="translate(192.937073, 108.645042)"><g/></g></g><g fill="#000000" fill-opacity="1"><g transform="translate(206.431172, 108.645042)"><g><path d="M 17.1875 -10.140625 L 13.921875 -19.09375 C 13.753906 -19.488281 13.582031 -19.957031 13.40625 -20.5 C 13.238281 -21.039062 13.070312 -21.628906 12.90625 -22.265625 C 12.738281 -21.628906 12.566406 -21.035156 12.390625 -20.484375 C 12.222656 -19.929688 12.054688 -19.453125 11.890625 -19.046875 L 8.640625 -10.140625 Z M 26.015625 0 L 22.15625 0 C 21.71875 0 21.363281 -0.109375 21.09375 -0.328125 C 20.820312 -0.546875 20.617188 -0.816406 20.484375 -1.140625 L 18.46875 -6.609375 L 7.34375 -6.609375 L 5.328125 -1.140625 C 5.234375 -0.847656 5.039062 -0.582031 4.75 -0.34375 C 4.46875 -0.113281 4.117188 0 3.703125 0 L -0.203125 0 L 10.375 -26.875 L 15.46875 -26.875 Z M 26.015625 0 "/></g></g></g><g fill="#000000" fill-opacity="1"><g transform="translate(236.707806, 108.645042)"><g><path d="M 11.109375 -14.09375 C 12.054688 -14.09375 12.878906 -14.207031 13.578125 -14.4375 C 14.273438 -14.675781 14.847656 -15.003906 15.296875 -15.421875 C 15.753906 -15.835938 16.09375 -16.328125 16.3125 -16.890625 C 16.539062 -17.460938 16.65625 -18.085938 16.65625 -18.765625 C 16.65625 -20.128906 16.203125 -21.175781 15.296875 -21.90625 C 14.398438 -22.644531 13.03125 -23.015625 11.1875 -23.015625 L 7.984375 -23.015625 L 7.984375 -14.09375 Z M 23.96875 0 L 19.453125 0 C 18.597656 0 17.976562 -0.332031 17.59375 -1 L 11.953125 -9.609375 C 11.742188 -9.929688 11.507812 -10.160156 11.25 -10.296875 C 11 -10.429688 10.625 -10.5 10.125 -10.5 L 7.984375 -10.5 L 7.984375 0 L 3 0 L 3 -26.875 L 11.1875 -26.875 C 13.007812 -26.875 14.570312 -26.679688 15.875 -26.296875 C 17.1875 -25.921875 18.257812 -25.394531 19.09375 -24.71875 C 19.9375 -24.039062 20.554688 -23.226562 20.953125 -22.28125 C 21.347656 -21.332031 21.546875 -20.285156 21.546875 -19.140625 C 21.546875 -18.234375 21.410156 -17.378906 21.140625 -16.578125 C 20.867188 -15.773438 20.484375 -15.046875 19.984375 -14.390625 C 19.484375 -13.734375 18.863281 -13.15625 18.125 -12.65625 C 17.394531 -12.15625 16.554688 -11.765625 15.609375 -11.484375 C 15.929688 -11.296875 16.226562 -11.070312 16.5 -10.8125 C 16.769531 -10.5625 17.019531 -10.265625 17.25 -9.921875 Z M 23.96875 0 "/></g></g></g><g fill="#000000" fill-opacity="1"><g transform="translate(265.070163, 108.645042)"><g><path d="M 8.015625 -22.890625 L 8.015625 -15.4375 L 17.421875 -15.4375 L 17.421875 -11.59375 L 8.015625 -11.59375 L 8.015625 -4 L 19.9375 -4 L 19.9375 0 L 3 0 L 3 -26.875 L 19.9375 -26.875 L 19.9375 -22.890625 Z M 8.015625 -22.890625 "/></g></g></g><g fill="#000000" fill-opacity="1"><g transform="translate(290.904902, 108.645042)"><g><path d="M 17.1875 -10.140625 L 13.921875 -19.09375 C 13.753906 -19.488281 13.582031 -19.957031 13.40625 -20.5 C 13.238281 -21.039062 13.070312 -21.628906 12.90625 -22.265625 C 12.738281 -21.628906 12.566406 -21.035156 12.390625 -20.484375 C 12.222656 -19.929688 12.054688 -19.453125 11.890625 -19.046875 L 8.640625 -10.140625 Z M 26.015625 0 L 22.15625 0 C 21.71875 0 21.363281 -0.109375 21.09375 -0.328125 C 20.820312 -0.546875 20.617188 -0.816406 20.484375 -1.140625 L 18.46875 -6.609375 L 7.34375 -6.609375 L 5.328125 -1.140625 C 5.234375 -0.847656 5.039062 -0.582031 4.75 -0.34375 C 4.46875 -0.113281 4.117188 0 3.703125 0 L -0.203125 0 L 10.375 -26.875 L 15.46875 -26.875 Z M 26.015625 0 "/></g></g></g><g fill="#000000" fill-opacity="1"><g transform="translate(33.946588, 145.19135)"><g><path d="M 18.734375 -4.125 L 18.734375 0 L 3 0 L 3 -26.875 L 7.984375 -26.875 L 7.984375 -4.125 Z M 18.734375 -4.125 "/></g></g></g><g fill="#000000" fill-opacity="1"><g transform="translate(57.718356, 145.19135)"><g><path d="M 17.1875 -10.140625 L 13.921875 -19.09375 C 13.753906 -19.488281 13.582031 -19.957031 13.40625 -20.5 C 13.238281 -21.039062 13.070312 -21.628906 12.90625 -22.265625 C 12.738281 -21.628906 12.566406 -21.035156 12.390625 -20.484375 C 12.222656 -19.929688 12.054688 -19.453125 11.890625 -19.046875 L 8.640625 -10.140625 Z M 26.015625 0 L 22.15625 0 C 21.71875 0 21.363281 -0.109375 21.09375 -0.328125 C 20.820312 -0.546875 20.617188 -0.816406 20.484375 -1.140625 L 18.46875 -6.609375 L 7.34375 -6.609375 L 5.328125 -1.140625 C 5.234375 -0.847656 5.039062 -0.582031 4.75 -0.34375 C 4.46875 -0.113281 4.117188 0 3.703125 0 L -0.203125 0 L 10.375 -26.875 L 15.46875 -26.875 Z M 26.015625 0 "/></g></g></g><g fill="#000000" fill-opacity="1"><g transform="translate(87.994984, 145.19135)"><g><path d="M 25.65625 -26.875 L 25.65625 0 L 23.078125 0 C 22.679688 0 22.347656 -0.0625 22.078125 -0.1875 C 21.816406 -0.320312 21.5625 -0.546875 21.3125 -0.859375 L 7.28125 -18.765625 C 7.351562 -17.953125 7.390625 -17.195312 7.390625 -16.5 L 7.390625 0 L 3 0 L 3 -26.875 L 5.609375 -26.875 C 5.816406 -26.875 6 -26.863281 6.15625 -26.84375 C 6.3125 -26.820312 6.445312 -26.785156 6.5625 -26.734375 C 6.6875 -26.679688 6.800781 -26.601562 6.90625 -26.5 C 7.019531 -26.394531 7.144531 -26.253906 7.28125 -26.078125 L 21.375 -8.078125 C 21.332031 -8.515625 21.300781 -8.941406 21.28125 -9.359375 C 21.257812 -9.785156 21.25 -10.175781 21.25 -10.53125 L 21.25 -26.875 Z M 25.65625 -26.875 "/></g></g></g><g fill="#000000" fill-opacity="1"><g transform="translate(121.096575, 145.19135)"><g><path d="M 26.859375 -13.4375 C 26.859375 -11.46875 26.53125 -9.65625 25.875 -8 C 25.21875 -6.351562 24.289062 -4.9375 23.09375 -3.75 C 21.90625 -2.5625 20.472656 -1.640625 18.796875 -0.984375 C 17.128906 -0.328125 15.273438 0 13.234375 0 L 3 0 L 3 -26.875 L 13.234375 -26.875 C 15.273438 -26.875 17.128906 -26.539062 18.796875 -25.875 C 20.472656 -25.21875 21.90625 -24.296875 23.09375 -23.109375 C 24.289062 -21.929688 25.21875 -20.515625 25.875 -18.859375 C 26.53125 -17.210938 26.859375 -15.40625 26.859375 -13.4375 Z M 21.734375 -13.4375 C 21.734375 -14.914062 21.535156 -16.238281 21.140625 -17.40625 C 20.753906 -18.570312 20.191406 -19.5625 19.453125 -20.375 C 18.710938 -21.1875 17.816406 -21.804688 16.765625 -22.234375 C 15.722656 -22.671875 14.546875 -22.890625 13.234375 -22.890625 L 8.015625 -22.890625 L 8.015625 -3.984375 L 13.234375 -3.984375 C 14.546875 -3.984375 15.722656 -4.195312 16.765625 -4.625 C 17.816406 -5.0625 18.710938 -5.6875 19.453125 -6.5 C 20.191406 -7.3125 20.753906 -8.300781 21.140625 -9.46875 C 21.535156 -10.632812 21.734375 -11.957031 21.734375 -13.4375 Z M 21.734375 -13.4375 "/></g></g></g><g fill="#000000" fill-opacity="1"><g transform="translate(153.826472, 145.19135)"><g><path d="M 17.296875 -21.984375 C 17.148438 -21.722656 16.992188 -21.535156 16.828125 -21.421875 C 16.660156 -21.304688 16.453125 -21.25 16.203125 -21.25 C 15.941406 -21.25 15.660156 -21.34375 15.359375 -21.53125 C 15.054688 -21.71875 14.691406 -21.929688 14.265625 -22.171875 C 13.847656 -22.410156 13.359375 -22.625 12.796875 -22.8125 C 12.234375 -23.007812 11.566406 -23.109375 10.796875 -23.109375 C 10.097656 -23.109375 9.488281 -23.019531 8.96875 -22.84375 C 8.457031 -22.675781 8.023438 -22.441406 7.671875 -22.140625 C 7.316406 -21.847656 7.050781 -21.492188 6.875 -21.078125 C 6.695312 -20.671875 6.609375 -20.21875 6.609375 -19.71875 C 6.609375 -19.082031 6.785156 -18.554688 7.140625 -18.140625 C 7.492188 -17.722656 7.960938 -17.363281 8.546875 -17.0625 C 9.128906 -16.757812 9.789062 -16.488281 10.53125 -16.25 C 11.28125 -16.019531 12.046875 -15.769531 12.828125 -15.5 C 13.609375 -15.238281 14.367188 -14.929688 15.109375 -14.578125 C 15.847656 -14.222656 16.507812 -13.773438 17.09375 -13.234375 C 17.675781 -12.703125 18.144531 -12.046875 18.5 -11.265625 C 18.851562 -10.484375 19.03125 -9.535156 19.03125 -8.421875 C 19.03125 -7.203125 18.820312 -6.0625 18.40625 -5 C 17.988281 -3.945312 17.378906 -3.023438 16.578125 -2.234375 C 15.785156 -1.453125 14.8125 -0.832031 13.65625 -0.375 C 12.507812 0.0703125 11.191406 0.296875 9.703125 0.296875 C 8.847656 0.296875 8.003906 0.210938 7.171875 0.046875 C 6.335938 -0.117188 5.539062 -0.359375 4.78125 -0.671875 C 4.019531 -0.984375 3.304688 -1.351562 2.640625 -1.78125 C 1.972656 -2.21875 1.378906 -2.703125 0.859375 -3.234375 L 2.328125 -5.625 C 2.453125 -5.800781 2.613281 -5.945312 2.8125 -6.0625 C 3.007812 -6.1875 3.21875 -6.25 3.4375 -6.25 C 3.75 -6.25 4.082031 -6.117188 4.4375 -5.859375 C 4.800781 -5.609375 5.226562 -5.328125 5.71875 -5.015625 C 6.21875 -4.703125 6.796875 -4.421875 7.453125 -4.171875 C 8.117188 -3.921875 8.914062 -3.796875 9.84375 -3.796875 C 11.269531 -3.796875 12.375 -4.128906 13.15625 -4.796875 C 13.9375 -5.472656 14.328125 -6.445312 14.328125 -7.71875 C 14.328125 -8.414062 14.148438 -8.988281 13.796875 -9.4375 C 13.441406 -9.882812 12.972656 -10.257812 12.390625 -10.5625 C 11.804688 -10.863281 11.144531 -11.117188 10.40625 -11.328125 C 9.664062 -11.546875 8.910156 -11.773438 8.140625 -12.015625 C 7.367188 -12.265625 6.613281 -12.5625 5.875 -12.90625 C 5.132812 -13.257812 4.472656 -13.710938 3.890625 -14.265625 C 3.304688 -14.828125 2.835938 -15.523438 2.484375 -16.359375 C 2.128906 -17.203125 1.953125 -18.234375 1.953125 -19.453125 C 1.953125 -20.429688 2.144531 -21.382812 2.53125 -22.3125 C 2.925781 -23.25 3.492188 -24.078125 4.234375 -24.796875 C 4.984375 -25.515625 5.898438 -26.085938 6.984375 -26.515625 C 8.078125 -26.953125 9.332031 -27.171875 10.75 -27.171875 C 12.332031 -27.171875 13.789062 -26.921875 15.125 -26.421875 C 16.46875 -25.929688 17.609375 -25.238281 18.546875 -24.34375 Z M 17.296875 -21.984375 "/></g></g></g><g fill="#000000" fill-opacity="1"><g transform="translate(178.676189, 145.19135)"><g><path d="M 21.453125 -6.34375 C 21.722656 -6.34375 21.960938 -6.234375 22.171875 -6.015625 L 24.140625 -3.890625 C 23.046875 -2.535156 21.703125 -1.5 20.109375 -0.78125 C 18.523438 -0.0625 16.617188 0.296875 14.390625 0.296875 C 12.390625 0.296875 10.59375 -0.0390625 9 -0.71875 C 7.40625 -1.40625 6.046875 -2.351562 4.921875 -3.5625 C 3.796875 -4.78125 2.929688 -6.226562 2.328125 -7.90625 C 1.734375 -9.59375 1.4375 -11.4375 1.4375 -13.4375 C 1.4375 -15.457031 1.753906 -17.304688 2.390625 -18.984375 C 3.035156 -20.660156 3.941406 -22.101562 5.109375 -23.3125 C 6.285156 -24.53125 7.6875 -25.476562 9.3125 -26.15625 C 10.9375 -26.832031 12.734375 -27.171875 14.703125 -27.171875 C 16.660156 -27.171875 18.394531 -26.847656 19.90625 -26.203125 C 21.425781 -25.554688 22.722656 -24.710938 23.796875 -23.671875 L 22.125 -21.359375 C 22.019531 -21.203125 21.890625 -21.066406 21.734375 -20.953125 C 21.578125 -20.847656 21.363281 -20.796875 21.09375 -20.796875 C 20.90625 -20.796875 20.710938 -20.847656 20.515625 -20.953125 C 20.316406 -21.054688 20.097656 -21.1875 19.859375 -21.34375 C 19.628906 -21.5 19.359375 -21.671875 19.046875 -21.859375 C 18.734375 -22.046875 18.375 -22.210938 17.96875 -22.359375 C 17.5625 -22.515625 17.085938 -22.644531 16.546875 -22.75 C 16.015625 -22.863281 15.394531 -22.921875 14.6875 -22.921875 C 13.476562 -22.921875 12.375 -22.707031 11.375 -22.28125 C 10.382812 -21.851562 9.53125 -21.234375 8.8125 -20.421875 C 8.09375 -19.609375 7.535156 -18.613281 7.140625 -17.4375 C 6.742188 -16.269531 6.546875 -14.9375 6.546875 -13.4375 C 6.546875 -11.925781 6.757812 -10.582031 7.1875 -9.40625 C 7.613281 -8.226562 8.191406 -7.234375 8.921875 -6.421875 C 9.648438 -5.617188 10.507812 -5.003906 11.5 -4.578125 C 12.488281 -4.148438 13.554688 -3.9375 14.703125 -3.9375 C 15.378906 -3.9375 15.992188 -3.972656 16.546875 -4.046875 C 17.097656 -4.117188 17.601562 -4.234375 18.0625 -4.390625 C 18.53125 -4.554688 18.972656 -4.765625 19.390625 -5.015625 C 19.804688 -5.273438 20.21875 -5.59375 20.625 -5.96875 C 20.75 -6.082031 20.878906 -6.171875 21.015625 -6.234375 C 21.148438 -6.304688 21.296875 -6.34375 21.453125 -6.34375 Z M 21.453125 -6.34375 "/></g></g></g><g fill="#000000" fill-opacity="1"><g transform="translate(207.726196, 145.19135)"><g><path d="M 17.1875 -10.140625 L 13.921875 -19.09375 C 13.753906 -19.488281 13.582031 -19.957031 13.40625 -20.5 C 13.238281 -21.039062 13.070312 -21.628906 12.90625 -22.265625 C 12.738281 -21.628906 12.566406 -21.035156 12.390625 -20.484375 C 12.222656 -19.929688 12.054688 -19.453125 11.890625 -19.046875 L 8.640625 -10.140625 Z M 26.015625 0 L 22.15625 0 C 21.71875 0 21.363281 -0.109375 21.09375 -0.328125 C 20.820312 -0.546875 20.617188 -0.816406 20.484375 -1.140625 L 18.46875 -6.609375 L 7.34375 -6.609375 L 5.328125 -1.140625 C 5.234375 -0.847656 5.039062 -0.582031 4.75 -0.34375 C 4.46875 -0.113281 4.117188 0 3.703125 0 L -0.203125 0 L 10.375 -26.875 L 15.46875 -26.875 Z M 26.015625 0 "/></g></g></g><g fill="#000000" fill-opacity="1"><g transform="translate(238.00283, 145.19135)"><g><path d="M 11.734375 -13.359375 C 12.648438 -13.359375 13.445312 -13.472656 14.125 -13.703125 C 14.800781 -13.929688 15.363281 -14.257812 15.8125 -14.6875 C 16.269531 -15.113281 16.609375 -15.632812 16.828125 -16.25 C 17.054688 -16.863281 17.171875 -17.550781 17.171875 -18.3125 C 17.171875 -19.03125 17.054688 -19.675781 16.828125 -20.25 C 16.609375 -20.832031 16.273438 -21.328125 15.828125 -21.734375 C 15.390625 -22.148438 14.828125 -22.46875 14.140625 -22.6875 C 13.460938 -22.90625 12.660156 -23.015625 11.734375 -23.015625 L 7.984375 -23.015625 L 7.984375 -13.359375 Z M 11.734375 -26.875 C 13.523438 -26.875 15.078125 -26.660156 16.390625 -26.234375 C 17.703125 -25.816406 18.785156 -25.226562 19.640625 -24.46875 C 20.492188 -23.71875 21.128906 -22.816406 21.546875 -21.765625 C 21.960938 -20.710938 22.171875 -19.5625 22.171875 -18.3125 C 22.171875 -17.007812 21.953125 -15.816406 21.515625 -14.734375 C 21.085938 -13.648438 20.4375 -12.71875 19.5625 -11.9375 C 18.695312 -11.15625 17.609375 -10.546875 16.296875 -10.109375 C 14.992188 -9.671875 13.472656 -9.453125 11.734375 -9.453125 L 7.984375 -9.453125 L 7.984375 0 L 3 0 L 3 -26.875 Z M 11.734375 -26.875 "/></g></g></g><g fill="#000000" fill-opacity="1"><g transform="translate(265.473073, 145.19135)"><g><path d="M 8.015625 0 L 3 0 L 3 -26.875 L 8.015625 -26.875 Z M 8.015625 0 "/></g></g></g><g fill="#000000" fill-opacity="1"><g transform="translate(280.955812, 145.19135)"><g><path d="M 25.65625 -26.875 L 25.65625 0 L 23.078125 0 C 22.679688 0 22.347656 -0.0625 22.078125 -0.1875 C 21.816406 -0.320312 21.5625 -0.546875 21.3125 -0.859375 L 7.28125 -18.765625 C 7.351562 -17.953125 7.390625 -17.195312 7.390625 -16.5 L 7.390625 0 L 3 0 L 3 -26.875 L 5.609375 -26.875 C 5.816406 -26.875 6 -26.863281 6.15625 -26.84375 C 6.3125 -26.820312 6.445312 -26.785156 6.5625 -26.734375 C 6.6875 -26.679688 6.800781 -26.601562 6.90625 -26.5 C 7.019531 -26.394531 7.144531 -26.253906 7.28125 -26.078125 L 21.375 -8.078125 C 21.332031 -8.515625 21.300781 -8.941406 21.28125 -9.359375 C 21.257812 -9.785156 21.25 -10.175781 21.25 -10.53125 L 21.25 -26.875 Z M 25.65625 -26.875 "/></g></g></g><g fill="#000000" fill-opacity="1"><g transform="translate(314.05741, 145.19135)"><g><path d="M 25.140625 -13.46875 L 25.140625 -2.609375 C 23.785156 -1.597656 22.332031 -0.859375 20.78125 -0.390625 C 19.238281 0.0664062 17.585938 0.296875 15.828125 0.296875 C 13.640625 0.296875 11.65625 -0.0390625 9.875 -0.71875 C 8.101562 -1.40625 6.585938 -2.351562 5.328125 -3.5625 C 4.066406 -4.78125 3.09375 -6.226562 2.40625 -7.90625 C 1.726562 -9.59375 1.390625 -11.4375 1.390625 -13.4375 C 1.390625 -15.457031 1.71875 -17.304688 2.375 -18.984375 C 3.03125 -20.671875 3.960938 -22.125 5.171875 -23.34375 C 6.378906 -24.5625 7.84375 -25.503906 9.5625 -26.171875 C 11.289062 -26.835938 13.226562 -27.171875 15.375 -27.171875 C 16.457031 -27.171875 17.472656 -27.082031 18.421875 -26.90625 C 19.367188 -26.738281 20.25 -26.5 21.0625 -26.1875 C 21.875 -25.882812 22.613281 -25.515625 23.28125 -25.078125 C 23.957031 -24.648438 24.570312 -24.175781 25.125 -23.65625 L 23.703125 -21.390625 C 23.472656 -21.035156 23.175781 -20.816406 22.8125 -20.734375 C 22.457031 -20.648438 22.070312 -20.738281 21.65625 -21 C 21.25 -21.238281 20.835938 -21.472656 20.421875 -21.703125 C 20.015625 -21.941406 19.5625 -22.144531 19.0625 -22.3125 C 18.5625 -22.488281 18 -22.632812 17.375 -22.75 C 16.75 -22.863281 16.023438 -22.921875 15.203125 -22.921875 C 13.878906 -22.921875 12.679688 -22.695312 11.609375 -22.25 C 10.535156 -21.800781 9.617188 -21.160156 8.859375 -20.328125 C 8.109375 -19.503906 7.523438 -18.507812 7.109375 -17.34375 C 6.703125 -16.175781 6.5 -14.875 6.5 -13.4375 C 6.5 -11.90625 6.71875 -10.535156 7.15625 -9.328125 C 7.601562 -8.117188 8.222656 -7.09375 9.015625 -6.25 C 9.816406 -5.414062 10.78125 -4.78125 11.90625 -4.34375 C 13.039062 -3.90625 14.300781 -3.6875 15.6875 -3.6875 C 16.675781 -3.6875 17.5625 -3.789062 18.34375 -4 C 19.125 -4.207031 19.882812 -4.488281 20.625 -4.84375 L 20.625 -9.71875 L 17.25 -9.71875 C 16.925781 -9.71875 16.671875 -9.804688 16.484375 -9.984375 C 16.304688 -10.171875 16.21875 -10.394531 16.21875 -10.65625 L 16.21875 -13.46875 Z M 25.140625 -13.46875 "/></g></g></g><g fill="#8cc63f" fill-opacity="1"><g transform="translate(110.81771, 172.201595)"><g><path d="M 6.21875 -3.515625 L 4.734375 -7.359375 C 4.691406 -7.460938 4.644531 -7.59375 4.59375 -7.75 C 4.550781 -7.90625 4.507812 -8.066406 4.46875 -8.234375 C 4.375 -7.878906 4.28125 -7.582031 4.1875 -7.34375 L 2.703125 -3.515625 Z M 8.890625 0 L 7.90625 0 C 7.789062 0 7.695312 -0.0234375 7.625 -0.078125 C 7.550781 -0.140625 7.5 -0.210938 7.46875 -0.296875 L 6.578125 -2.578125 L 2.34375 -2.578125 L 1.453125 -0.296875 C 1.429688 -0.222656 1.378906 -0.15625 1.296875 -0.09375 C 1.222656 -0.03125 1.132812 0 1.03125 0 L 0.046875 0 L 3.8125 -9.453125 L 5.109375 -9.453125 Z M 8.890625 0 "/></g></g></g><g fill="#8cc63f" fill-opacity="1"><g transform="translate(123.044423, 172.201595)"><g><path d="M 6.5625 -1.078125 L 6.5625 0 L 1.203125 0 L 1.203125 -9.453125 L 2.484375 -9.453125 L 2.484375 -1.078125 Z M 6.5625 -1.078125 "/></g></g></g><g fill="#8cc63f" fill-opacity="1"><g transform="translate(133.115044, 172.201595)"><g><path d="M 7.03125 -1.046875 L 7.03125 0 L 1.203125 0 L 1.203125 -9.453125 L 7.03125 -9.453125 L 7.03125 -8.40625 L 2.484375 -8.40625 L 2.484375 -5.265625 L 6.171875 -5.265625 L 6.171875 -4.265625 L 2.484375 -4.265625 L 2.484375 -1.046875 Z M 7.03125 -1.046875 "/></g></g></g><g fill="#8cc63f" fill-opacity="1"><g transform="translate(144.029639, 172.201595)"><g><path d="M 8.40625 0 L 7.140625 0 C 7.046875 0 6.972656 -0.0234375 6.921875 -0.078125 C 6.867188 -0.128906 6.820312 -0.1875 6.78125 -0.25 L 4.25 -4.21875 C 4.21875 -4.113281 4.179688 -4.019531 4.140625 -3.9375 L 1.671875 -0.25 C 1.628906 -0.1875 1.582031 -0.128906 1.53125 -0.078125 C 1.476562 -0.0234375 1.40625 0 1.3125 0 L 0.125 0 L 3.375 -4.859375 L 0.265625 -9.453125 L 1.53125 -9.453125 C 1.625 -9.453125 1.691406 -9.4375 1.734375 -9.40625 C 1.785156 -9.375 1.828125 -9.328125 1.859375 -9.265625 L 4.328125 -5.484375 C 4.359375 -5.578125 4.40625 -5.679688 4.46875 -5.796875 L 6.796875 -9.25 C 6.828125 -9.3125 6.863281 -9.359375 6.90625 -9.390625 C 6.957031 -9.429688 7.019531 -9.453125 7.09375 -9.453125 L 8.3125 -9.453125 L 5.171875 -4.90625 Z M 8.40625 0 "/></g></g></g><g fill="#8cc63f" fill-opacity="1"><g transform="translate(155.887122, 172.201595)"><g><path d="M 6.21875 -3.515625 L 4.734375 -7.359375 C 4.691406 -7.460938 4.644531 -7.59375 4.59375 -7.75 C 4.550781 -7.90625 4.507812 -8.066406 4.46875 -8.234375 C 4.375 -7.878906 4.28125 -7.582031 4.1875 -7.34375 L 2.703125 -3.515625 Z M 8.890625 0 L 7.90625 0 C 7.789062 0 7.695312 -0.0234375 7.625 -0.078125 C 7.550781 -0.140625 7.5 -0.210938 7.46875 -0.296875 L 6.578125 -2.578125 L 2.34375 -2.578125 L 1.453125 -0.296875 C 1.429688 -0.222656 1.378906 -0.15625 1.296875 -0.09375 C 1.222656 -0.03125 1.132812 0 1.03125 0 L 0.046875 0 L 3.8125 -9.453125 L 5.109375 -9.453125 Z M 8.890625 0 "/></g></g></g><g fill="#8cc63f" fill-opacity="1"><g transform="translate(168.113835, 172.201595)"><g><path d="M 8.859375 -9.453125 L 8.859375 0 L 8.21875 0 C 8.125 0 8.039062 -0.015625 7.96875 -0.046875 C 7.894531 -0.0859375 7.828125 -0.148438 7.765625 -0.234375 L 2.296875 -7.359375 C 2.304688 -7.242188 2.3125 -7.132812 2.3125 -7.03125 C 2.320312 -6.925781 2.328125 -6.828125 2.328125 -6.734375 L 2.328125 0 L 1.203125 0 L 1.203125 -9.453125 L 1.859375 -9.453125 C 1.921875 -9.453125 1.972656 -9.445312 2.015625 -9.4375 C 2.054688 -9.425781 2.085938 -9.414062 2.109375 -9.40625 C 2.140625 -9.394531 2.171875 -9.375 2.203125 -9.34375 C 2.234375 -9.3125 2.269531 -9.273438 2.3125 -9.234375 L 7.78125 -2.109375 C 7.769531 -2.222656 7.757812 -2.332031 7.75 -2.4375 C 7.738281 -2.550781 7.734375 -2.65625 7.734375 -2.75 L 7.734375 -9.453125 Z M 8.859375 -9.453125 "/></g></g></g><g fill="#8cc63f" fill-opacity="1"><g transform="translate(181.48123, 172.201595)"><g><path d="M 9.390625 -4.71875 C 9.390625 -4.007812 9.273438 -3.363281 9.046875 -2.78125 C 8.828125 -2.207031 8.515625 -1.710938 8.109375 -1.296875 C 7.703125 -0.878906 7.210938 -0.554688 6.640625 -0.328125 C 6.066406 -0.109375 5.429688 0 4.734375 0 L 1.203125 0 L 1.203125 -9.453125 L 4.734375 -9.453125 C 5.429688 -9.453125 6.066406 -9.335938 6.640625 -9.109375 C 7.210938 -8.878906 7.703125 -8.554688 8.109375 -8.140625 C 8.515625 -7.722656 8.828125 -7.222656 9.046875 -6.640625 C 9.273438 -6.066406 9.390625 -5.425781 9.390625 -4.71875 Z M 8.078125 -4.71875 C 8.078125 -5.300781 8 -5.820312 7.84375 -6.28125 C 7.6875 -6.738281 7.460938 -7.125 7.171875 -7.4375 C 6.878906 -7.75 6.523438 -7.988281 6.109375 -8.15625 C 5.703125 -8.320312 5.242188 -8.40625 4.734375 -8.40625 L 2.484375 -8.40625 L 2.484375 -1.03125 L 4.734375 -1.03125 C 5.242188 -1.03125 5.703125 -1.113281 6.109375 -1.28125 C 6.523438 -1.445312 6.878906 -1.6875 7.171875 -2 C 7.460938 -2.320312 7.6875 -2.707031 7.84375 -3.15625 C 8 -3.613281 8.078125 -4.132812 8.078125 -4.71875 Z M 8.078125 -4.71875 "/></g></g></g><g fill="#8cc63f" fill-opacity="1"><g transform="translate(194.809071, 172.201595)"><g><path d="M 3.828125 -4.875 C 4.191406 -4.875 4.515625 -4.914062 4.796875 -5 C 5.085938 -5.09375 5.328125 -5.222656 5.515625 -5.390625 C 5.703125 -5.554688 5.84375 -5.753906 5.9375 -5.984375 C 6.039062 -6.210938 6.09375 -6.460938 6.09375 -6.734375 C 6.09375 -7.296875 5.90625 -7.71875 5.53125 -8 C 5.164062 -8.289062 4.613281 -8.4375 3.875 -8.4375 L 2.484375 -8.4375 L 2.484375 -4.875 Z M 8.1875 0 L 7.0625 0 C 6.820312 0 6.648438 -0.0859375 6.546875 -0.265625 L 4.09375 -3.640625 C 4.007812 -3.742188 3.925781 -3.816406 3.84375 -3.859375 C 3.757812 -3.910156 3.628906 -3.9375 3.453125 -3.9375 L 2.484375 -3.9375 L 2.484375 0 L 1.203125 0 L 1.203125 -9.453125 L 3.875 -9.453125 C 4.476562 -9.453125 4.992188 -9.390625 5.421875 -9.265625 C 5.859375 -9.148438 6.21875 -8.976562 6.5 -8.75 C 6.789062 -8.519531 7.003906 -8.242188 7.140625 -7.921875 C 7.273438 -7.597656 7.34375 -7.234375 7.34375 -6.828125 C 7.34375 -6.492188 7.285156 -6.179688 7.171875 -5.890625 C 7.066406 -5.597656 6.914062 -5.335938 6.71875 -5.109375 C 6.519531 -4.878906 6.273438 -4.679688 5.984375 -4.515625 C 5.703125 -4.359375 5.378906 -4.238281 5.015625 -4.15625 C 5.171875 -4.0625 5.3125 -3.925781 5.4375 -3.75 Z M 8.1875 0 "/></g></g></g><g fill="#8cc63f" fill-opacity="1"><g transform="translate(206.36984, 172.201595)"><g><path d="M 2.484375 0 L 1.203125 0 L 1.203125 -9.453125 L 2.484375 -9.453125 Z M 2.484375 0 "/></g></g></g><g fill="#8cc63f" fill-opacity="1"><g transform="translate(213.361271, 172.201595)"><g><path d="M 6.21875 -3.515625 L 4.734375 -7.359375 C 4.691406 -7.460938 4.644531 -7.59375 4.59375 -7.75 C 4.550781 -7.90625 4.507812 -8.066406 4.46875 -8.234375 C 4.375 -7.878906 4.28125 -7.582031 4.1875 -7.34375 L 2.703125 -3.515625 Z M 8.890625 0 L 7.90625 0 C 7.789062 0 7.695312 -0.0234375 7.625 -0.078125 C 7.550781 -0.140625 7.5 -0.210938 7.46875 -0.296875 L 6.578125 -2.578125 L 2.34375 -2.578125 L 1.453125 -0.296875 C 1.429688 -0.222656 1.378906 -0.15625 1.296875 -0.09375 C 1.222656 -0.03125 1.132812 0 1.03125 0 L 0.046875 0 L 3.8125 -9.453125 L 5.109375 -9.453125 Z M 8.890625 0 "/></g></g></g><g fill="#8cc63f" fill-opacity="1"><g transform="translate(225.587981, 172.201595)"><g><path d="M 0.859375 1.59375 C 0.816406 1.5625 0.789062 1.53125 0.78125 1.5 C 0.769531 1.476562 0.765625 1.445312 0.765625 1.40625 C 0.765625 1.375 0.773438 1.34375 0.796875 1.3125 C 0.816406 1.28125 0.835938 1.253906 0.859375 1.234375 C 0.910156 1.179688 0.96875 1.113281 1.03125 1.03125 C 1.101562 0.957031 1.171875 0.863281 1.234375 0.75 C 1.304688 0.644531 1.367188 0.53125 1.421875 0.40625 C 1.484375 0.28125 1.53125 0.144531 1.5625 0 C 1.550781 0 1.535156 0 1.515625 0 C 1.503906 0 1.492188 0 1.484375 0 C 1.253906 0 1.066406 -0.0703125 0.921875 -0.21875 C 0.773438 -0.375 0.703125 -0.570312 0.703125 -0.8125 C 0.703125 -1.019531 0.773438 -1.195312 0.921875 -1.34375 C 1.066406 -1.488281 1.253906 -1.5625 1.484375 -1.5625 C 1.617188 -1.5625 1.734375 -1.535156 1.828125 -1.484375 C 1.929688 -1.429688 2.019531 -1.363281 2.09375 -1.28125 C 2.164062 -1.195312 2.21875 -1.097656 2.25 -0.984375 C 2.28125 -0.867188 2.296875 -0.75 2.296875 -0.625 C 2.296875 -0.425781 2.269531 -0.21875 2.21875 0 C 2.164062 0.207031 2.082031 0.414062 1.96875 0.625 C 1.863281 0.832031 1.734375 1.035156 1.578125 1.234375 C 1.429688 1.429688 1.257812 1.613281 1.0625 1.78125 Z M 0.859375 1.59375 "/></g></g></g><g fill="#8cc63f" fill-opacity="1"><g transform="translate(231.880505, 172.201595)"><g/></g></g><g fill="#8cc63f" fill-opacity="1"><g transform="translate(238.555449, 172.201595)"><g><path d="M 11.03125 -9.453125 L 11.03125 0 L 9.921875 0 L 9.921875 -6.9375 C 9.921875 -7.03125 9.921875 -7.128906 9.921875 -7.234375 C 9.929688 -7.335938 9.941406 -7.445312 9.953125 -7.5625 L 6.703125 -1.65625 C 6.597656 -1.457031 6.445312 -1.359375 6.25 -1.359375 L 6.0625 -1.359375 C 5.851562 -1.359375 5.695312 -1.457031 5.59375 -1.65625 L 2.28125 -7.59375 C 2.3125 -7.351562 2.328125 -7.132812 2.328125 -6.9375 L 2.328125 0 L 1.203125 0 L 1.203125 -9.453125 L 2.15625 -9.453125 C 2.269531 -9.453125 2.351562 -9.441406 2.40625 -9.421875 C 2.46875 -9.398438 2.53125 -9.335938 2.59375 -9.234375 L 5.859375 -3.421875 C 5.910156 -3.304688 5.960938 -3.191406 6.015625 -3.078125 C 6.066406 -2.972656 6.113281 -2.859375 6.15625 -2.734375 C 6.195312 -2.859375 6.238281 -2.976562 6.28125 -3.09375 C 6.332031 -3.207031 6.390625 -3.316406 6.453125 -3.421875 L 9.65625 -9.234375 C 9.707031 -9.335938 9.765625 -9.398438 9.828125 -9.421875 C 9.890625 -9.441406 9.976562 -9.453125 10.09375 -9.453125 Z M 11.03125 -9.453125 "/></g></g></g><g fill="#8cc63f" fill-opacity="1"><g transform="translate(254.098712, 172.201595)"><g><path d="M 8.859375 -9.453125 L 8.859375 0 L 8.21875 0 C 8.125 0 8.039062 -0.015625 7.96875 -0.046875 C 7.894531 -0.0859375 7.828125 -0.148438 7.765625 -0.234375 L 2.296875 -7.359375 C 2.304688 -7.242188 2.3125 -7.132812 2.3125 -7.03125 C 2.320312 -6.925781 2.328125 -6.828125 2.328125 -6.734375 L 2.328125 0 L 1.203125 0 L 1.203125 -9.453125 L 1.859375 -9.453125 C 1.921875 -9.453125 1.972656 -9.445312 2.015625 -9.4375 C 2.054688 -9.425781 2.085938 -9.414062 2.109375 -9.40625 C 2.140625 -9.394531 2.171875 -9.375 2.203125 -9.34375 C 2.234375 -9.3125 2.269531 -9.273438 2.3125 -9.234375 L 7.78125 -2.109375 C 7.769531 -2.222656 7.757812 -2.332031 7.75 -2.4375 C 7.738281 -2.550781 7.734375 -2.65625 7.734375 -2.75 L 7.734375 -9.453125 Z M 8.859375 -9.453125 "/></g></g></g><g clip-path="url(#b33d29f740)"><g clip-path="url(#7197fb1f7c)"><g clip-path="url(#1e4e836e17)"><g clip-path="url(#23fe5637c7)"><path fill="#8cc63f" d="M 203.136719 37.894531 C 203.136719 37.894531 203.507812 44.910156 207.492188 48.097656 C 211.460938 51.277344 218.824219 51.15625 218.824219 51.15625 C 218.824219 51.15625 216.355469 44.140625 213.285156 41.769531 C 210.222656 39.382812 203.136719 37.894531 203.136719 37.894531 Z M 203.136719 37.894531 " fill-opacity="1" fill-rule="nonzero"/></g></g></g></g><g clip-path="url(#7fe2539533)"><g clip-path="url(#04d0b2956e)"><g clip-path="url(#9061d8d80d)"><g clip-path="url(#a2cdfe3193)"><path fill="#8cc63f" d="M 178.773438 39.421875 C 178.773438 39.421875 179.871094 35.546875 177.105469 29.152344 C 174.339844 22.757812 168.339844 20.296875 168.339844 20.296875 C 168.339844 20.296875 166.542969 24.460938 169.667969 32.359375 C 172.796875 40.261719 178.773438 39.421875 178.773438 39.421875 Z M 178.773438 39.421875 " fill-opacity="1" fill-rule="nonzero"/></g></g></g></g><g clip-path="url(#4fafffff7d)"><g clip-path="url(#1c0ecfa040)"><g clip-path="url(#69f1749a06)"><g clip-path="url(#22dc38ca29)"><path fill="#8cc63f" d="M 202.628906 38.34375 C 202.628906 38.34375 203.113281 30.832031 200.066406 27.4375 C 197.015625 24.039062 190.679688 24.183594 190.679688 24.183594 C 190.679688 24.183594 191.980469 31.699219 194.335938 34.226562 C 196.695312 36.757812 202.628906 38.34375 202.628906 38.34375 Z M 202.628906 38.34375 " fill-opacity="1" fill-rule="nonzero"/></g></g></g></g><g clip-path="url(#ddd53b7edd)"><g clip-path="url(#eec84e17c8)"><g clip-path="url(#d658d38855)"><g clip-path="url(#0844c6394b)"><path fill="#8cc63f" d="M 212.046875 33.199219 C 212.046875 33.199219 210.832031 25.828125 206.730469 22.972656 C 202.632812 20.121094 199.296875 18.617188 199.296875 18.617188 C 199.296875 18.617188 201.28125 21.960938 202.945312 28.820312 C 204.609375 35.679688 212.046875 33.199219 212.046875 33.199219 Z M 212.046875 33.199219 " fill-opacity="1" fill-rule="nonzero"/></g></g></g></g><g clip-path="url(#f61c4bc9a2)"><g clip-path="url(#fba15290d1)"><g clip-path="url(#158c6ca468)"><g clip-path="url(#3a3541babb)"><path fill="#8cc63f" d="M 212.113281 33.308594 C 212.113281 33.308594 215.734375 40.019531 219.96875 42.160156 C 224.199219 44.300781 229.066406 42.546875 229.066406 42.546875 C 229.066406 42.546875 224.5 36.785156 221.253906 35.242188 C 218.019531 33.6875 212.113281 33.308594 212.113281 33.308594 Z M 212.113281 33.308594 " fill-opacity="1" fill-rule="nonzero"/></g></g></g></g><g clip-path="url(#b57289a03e)"><g clip-path="url(#42f7788c29)"><g clip-path="url(#3f8ad3f2e3)"><g clip-path="url(#ef7ce3bb20)"><path fill="#8cc63f" d="M 215.164062 28.351562 C 215.164062 28.351562 220.382812 25.226562 221.246094 20.273438 C 222.113281 15.320312 219.144531 8.511719 219.144531 8.511719 C 219.144531 8.511719 214.738281 13.5625 214.136719 17.355469 C 213.515625 21.152344 215.164062 28.351562 215.164062 28.351562 Z M 215.164062 28.351562 " fill-opacity="1" fill-rule="nonzero"/></g></g></g></g><g clip-path="url(#e907b567f1)"><g clip-path="url(#4cf2d51e12)"><g clip-path="url(#995017056a)"><g clip-path="url(#8502c61ab0)"><path fill="#8cc63f" d="M 190.472656 40.039062 C 190.472656 40.039062 196.066406 38.71875 198.902344 45.394531 C 201.738281 52.066406 206.542969 53.492188 206.542969 53.492188 C 206.542969 53.492188 199.296875 57.917969 194.917969 53.824219 C 190.539062 49.726562 190.855469 43.53125 190.472656 40.039062 Z M 190.472656 40.039062 " fill-opacity="1" fill-rule="nonzero"/></g></g></g></g><g clip-path="url(#2a645441e4)"><g clip-path="url(#e56e8c46f0)"><g clip-path="url(#cb9579de05)"><g clip-path="url(#e82f18fea8)"><path fill="#8cc63f" d="M 191.707031 40.085938 C 191.707031 40.085938 193.578125 33.042969 188.191406 28.523438 C 183.269531 24.375 179.808594 20.976562 179.808594 20.976562 C 179.808594 20.976562 181.441406 30.183594 183.125 34.417969 C 184.8125 38.648438 191.707031 40.085938 191.707031 40.085938 Z M 191.707031 40.085938 " fill-opacity="1" fill-rule="nonzero"/></g></g></g></g><g clip-path="url(#dc5d75c017)"><g clip-path="url(#42ecb0abfd)"><g clip-path="url(#4221b8d1b8)"><g clip-path="url(#34f4da76fb)"><path fill="#8cc63f" d="M 178.832031 39.050781 C 178.832031 39.050781 176.398438 45.359375 178.804688 49.917969 C 181.210938 54.480469 188.027344 57.667969 188.027344 57.667969 C 188.027344 57.667969 188.542969 50.429688 186.660156 46.96875 C 184.785156 43.535156 178.832031 39.050781 178.832031 39.050781 Z M 178.832031 39.050781 " fill-opacity="1" fill-rule="nonzero"/></g></g></g></g><g clip-path="url(#b6336fdb20)"><g clip-path="url(#9e2da6c984)"><g clip-path="url(#ef1a2464fc)"><g clip-path="url(#564ddd0e00)"><path fill="#8cc63f" d="M 165.394531 36.964844 C 165.394531 36.964844 172.578125 40.332031 173.464844 47.40625 C 174.363281 54.46875 176.246094 55.996094 176.246094 55.996094 C 176.246094 55.996094 168.550781 57.875 165.675781 50.757812 C 162.789062 43.632812 165.394531 36.964844 165.394531 36.964844 Z M 165.394531 36.964844 " fill-opacity="1" fill-rule="nonzero"/></g></g></g></g><g clip-path="url(#b60adef7d4)"><g clip-path="url(#7582f14aad)"><g clip-path="url(#053b56ba70)"><g clip-path="url(#4d05ff340c)"><path fill="#8cc63f" d="M 164.644531 37.140625 C 164.644531 37.140625 168.230469 34.847656 165.8125 28.433594 C 163.375 22.019531 160.402344 16.996094 160.402344 16.996094 C 160.402344 16.996094 157.097656 20.441406 158.0625 27.757812 C 159.035156 35.097656 164.644531 37.140625 164.644531 37.140625 Z M 164.644531 37.140625 " fill-opacity="1" fill-rule="nonzero"/></g></g></g></g><g clip-path="url(#47a381a173)"><g clip-path="url(#a6902aba57)"><g clip-path="url(#34a699944e)"><g clip-path="url(#a50ac2caf0)"><path fill="#8cc63f" d="M 153.828125 32.308594 C 153.828125 32.308594 158.988281 35.484375 160.757812 42.164062 C 162.527344 48.847656 159.203125 52.40625 159.203125 52.40625 C 159.203125 52.40625 152.839844 49.289062 151.59375 42.398438 C 150.34375 35.480469 153.828125 32.308594 153.828125 32.308594 Z M 153.828125 32.308594 " fill-opacity="1" fill-rule="nonzero"/></g></g></g></g><g clip-path="url(#f752e90f6b)"><g clip-path="url(#18ca748bad)"><g clip-path="url(#6a3b3adf46)"><g clip-path="url(#8be9020603)"><g mask="url(#ea64e1021d)"><g transform="matrix(1, 0, 0, 1, 161, 13)"><g clip-path="url(#cfd115b5bc)"><g clip-path="url(#25dd3303fe)"><g clip-path="url(#65750b7b28)"><g clip-path="url(#2fc9f3f710)"><g clip-path="url(#3af1392c51)"><path fill="#ffffff" d="M 42.136719 24.894531 C 42.136719 24.894531 42.507812 31.910156 46.492188 35.097656 C 50.460938 38.277344 57.824219 38.15625 57.824219 38.15625 C 57.824219 38.15625 55.355469 31.140625 52.285156 28.769531 C 49.222656 26.382812 42.136719 24.894531 42.136719 24.894531 Z M 42.136719 24.894531 " fill-opacity="0.5" fill-rule="nonzero"/></g></g></g></g><g clip-path="url(#48e469566e)"><g clip-path="url(#f5c17afc34)"><g clip-path="url(#76a9fd1f14)"><g clip-path="url(#2b7e2953c9)"><path fill="#ffffff" d="M 17.773438 26.421875 C 17.773438 26.421875 18.871094 22.546875 16.105469 16.152344 C 13.339844 9.757812 7.339844 7.296875 7.339844 7.296875 C 7.339844 7.296875 5.542969 11.460938 8.667969 19.359375 C 11.796875 27.261719 17.773438 26.421875 17.773438 26.421875 Z M 17.773438 26.421875 " fill-opacity="0.5" fill-rule="nonzero"/></g></g></g></g></g></g></g></g></g></g></g><g clip-path="url(#7d19e350e6)"><g clip-path="url(#d8ff2545f4)"><g clip-path="url(#1da16b6aa7)"><g clip-path="url(#add556c757)"><path fill="#8cc63f" d="M 215.417969 27.96875 C 215.417969 27.96875 213.867188 41.417969 184.363281 40.328125 C 154.863281 39.238281 140.511719 24.183594 140.511719 24.183594 C 140.511719 24.183594 139.753906 23.207031 141.121094 22.890625 C 142.640625 22.539062 144.109375 25.058594 145.691406 26.515625 C 147.28125 27.960938 157.457031 38.570312 185.308594 39.585938 C 213.160156 40.601562 215.300781 27.929688 214.976562 26.574219 C 214.648438 25.222656 214.46875 24.949219 215.355469 25.226562 C 216.261719 25.496094 215.417969 27.96875 215.417969 27.96875 Z M 215.417969 27.96875 " fill-opacity="1" fill-rule="nonzero"/></g></g></g></g></svg>